<?xml version="1.0" encoding="utf-8"?>
<svg xmlns="http://www.w3.org/2000/svg" xmlns:xlink="http://www.w3.org/1999/xlink" width="600" height="400" viewBox="0 0 2400 1600">
<defs>
  <clipPath id="clip080">
    <rect x="0" y="0" width="2400" height="1600"/>
  </clipPath>
</defs>
<path clip-path="url(#clip080)" d="M0 1600 L2400 1600 L2400 0 L0 0  Z" fill="#ffffff" fill-rule="evenodd" fill-opacity="1"/>
<defs>
  <clipPath id="clip081">
    <rect x="480" y="0" width="1681" height="1600"/>
  </clipPath>
</defs>
<path clip-path="url(#clip080)" d="M247.459 1423.18 L2352.76 1423.18 L2352.76 123.472 L247.459 123.472  Z" fill="#ffffff" fill-rule="evenodd" fill-opacity="1"/>
<defs>
  <clipPath id="clip082">
    <rect x="247" y="123" width="2106" height="1301"/>
  </clipPath>
</defs>
<polyline clip-path="url(#clip082)" style="stroke:#000000; stroke-linecap:round; stroke-linejoin:round; stroke-width:2; stroke-opacity:0.1; fill:none" points="807.027,1423.18 807.027,123.472 "/>
<polyline clip-path="url(#clip082)" style="stroke:#000000; stroke-linecap:round; stroke-linejoin:round; stroke-width:2; stroke-opacity:0.1; fill:none" points="1300.11,1423.18 1300.11,123.472 "/>
<polyline clip-path="url(#clip082)" style="stroke:#000000; stroke-linecap:round; stroke-linejoin:round; stroke-width:2; stroke-opacity:0.1; fill:none" points="1793.19,1423.18 1793.19,123.472 "/>
<polyline clip-path="url(#clip082)" style="stroke:#000000; stroke-linecap:round; stroke-linejoin:round; stroke-width:2; stroke-opacity:0.1; fill:none" points="2286.27,1423.18 2286.27,123.472 "/>
<polyline clip-path="url(#clip082)" style="stroke:#000000; stroke-linecap:round; stroke-linejoin:round; stroke-width:2; stroke-opacity:0.1; fill:none" points="2779.35,1423.18 2779.35,123.472 "/>
<polyline clip-path="url(#clip080)" style="stroke:#000000; stroke-linecap:round; stroke-linejoin:round; stroke-width:4; stroke-opacity:1; fill:none" points="247.459,1423.18 2352.76,1423.18 "/>
<polyline clip-path="url(#clip080)" style="stroke:#000000; stroke-linecap:round; stroke-linejoin:round; stroke-width:4; stroke-opacity:1; fill:none" points="807.027,1423.18 807.027,1404.28 "/>
<polyline clip-path="url(#clip080)" style="stroke:#000000; stroke-linecap:round; stroke-linejoin:round; stroke-width:4; stroke-opacity:1; fill:none" points="1300.11,1423.18 1300.11,1404.28 "/>
<polyline clip-path="url(#clip080)" style="stroke:#000000; stroke-linecap:round; stroke-linejoin:round; stroke-width:4; stroke-opacity:1; fill:none" points="1793.19,1423.18 1793.19,1404.28 "/>
<polyline clip-path="url(#clip080)" style="stroke:#000000; stroke-linecap:round; stroke-linejoin:round; stroke-width:4; stroke-opacity:1; fill:none" points="2286.27,1423.18 2286.27,1404.28 "/>
<polyline clip-path="url(#clip080)" style="stroke:#000000; stroke-linecap:round; stroke-linejoin:round; stroke-width:4; stroke-opacity:1; fill:none" points="2779.35,1423.18 2779.35,1404.28 "/>
<path clip-path="url(#clip080)" d="M764.689 1451.02 L786.541 1451.02 L786.541 1454.96 L769.365 1454.96 L769.365 1465.19 L785.823 1465.19 L785.823 1469.12 L769.365 1469.12 L769.365 1481.64 L786.957 1481.64 L786.957 1485.58 L764.689 1485.58 L764.689 1451.02 Z" fill="#000000" fill-rule="evenodd" fill-opacity="1" /><path clip-path="url(#clip080)" d="M794.642 1451.02 L799.318 1451.02 L799.318 1481.64 L816.147 1481.64 L816.147 1485.58 L794.642 1485.58 L794.642 1451.02 Z" fill="#000000" fill-rule="evenodd" fill-opacity="1" /><path clip-path="url(#clip080)" d="M833.392 1454.19 Q828.3 1454.19 825.29 1457.99 Q822.304 1461.78 822.304 1468.33 Q822.304 1474.86 825.29 1478.66 Q828.3 1482.45 833.392 1482.45 Q838.485 1482.45 841.448 1478.66 Q844.434 1474.86 844.434 1468.33 Q844.434 1461.78 841.448 1457.99 Q838.485 1454.19 833.392 1454.19 M833.392 1450.39 Q840.661 1450.39 845.012 1455.28 Q849.364 1460.14 849.364 1468.33 Q849.364 1476.51 845.012 1481.39 Q840.661 1486.25 833.392 1486.25 Q826.1 1486.25 821.726 1481.39 Q817.374 1476.53 817.374 1468.33 Q817.374 1460.14 821.726 1455.28 Q826.1 1450.39 833.392 1450.39 Z" fill="#000000" fill-rule="evenodd" fill-opacity="1" /><path clip-path="url(#clip080)" d="M1213.97 1454.86 L1213.97 1467.85 L1219.85 1467.85 Q1223.12 1467.85 1224.9 1466.16 Q1226.68 1464.47 1226.68 1461.34 Q1226.68 1458.24 1224.9 1456.55 Q1223.12 1454.86 1219.85 1454.86 L1213.97 1454.86 M1209.3 1451.02 L1219.85 1451.02 Q1225.66 1451.02 1228.63 1453.66 Q1231.61 1456.27 1231.61 1461.34 Q1231.61 1466.46 1228.63 1469.08 Q1225.66 1471.69 1219.85 1471.69 L1213.97 1471.69 L1213.97 1485.58 L1209.3 1485.58 L1209.3 1451.02 Z" fill="#000000" fill-rule="evenodd" fill-opacity="1" /><path clip-path="url(#clip080)" d="M1237.89 1451.02 L1259.74 1451.02 L1259.74 1454.96 L1242.56 1454.96 L1242.56 1465.19 L1259.02 1465.19 L1259.02 1469.12 L1242.56 1469.12 L1242.56 1481.64 L1260.15 1481.64 L1260.15 1485.58 L1237.89 1485.58 L1237.89 1451.02 Z" fill="#000000" fill-rule="evenodd" fill-opacity="1" /><path clip-path="url(#clip080)" d="M1293.72 1453.68 L1293.72 1458.61 Q1291.36 1456.41 1288.67 1455.33 Q1286.01 1454.24 1283 1454.24 Q1277.08 1454.24 1273.93 1457.87 Q1270.78 1461.48 1270.78 1468.33 Q1270.78 1475.16 1273.93 1478.8 Q1277.08 1482.41 1283 1482.41 Q1286.01 1482.41 1288.67 1481.32 Q1291.36 1480.23 1293.72 1478.03 L1293.72 1482.92 Q1291.26 1484.58 1288.51 1485.42 Q1285.78 1486.25 1282.72 1486.25 Q1274.88 1486.25 1270.36 1481.46 Q1265.85 1476.64 1265.85 1468.33 Q1265.85 1460 1270.36 1455.21 Q1274.88 1450.39 1282.72 1450.39 Q1285.82 1450.39 1288.56 1451.23 Q1291.31 1452.04 1293.72 1453.68 Z" fill="#000000" fill-rule="evenodd" fill-opacity="1" /><path clip-path="url(#clip080)" d="M1314.97 1454.19 Q1309.88 1454.19 1306.87 1457.99 Q1303.88 1461.78 1303.88 1468.33 Q1303.88 1474.86 1306.87 1478.66 Q1309.88 1482.45 1314.97 1482.45 Q1320.06 1482.45 1323.02 1478.66 Q1326.01 1474.86 1326.01 1468.33 Q1326.01 1461.78 1323.02 1457.99 Q1320.06 1454.19 1314.97 1454.19 M1314.97 1450.39 Q1322.24 1450.39 1326.59 1455.28 Q1330.94 1460.14 1330.94 1468.33 Q1330.94 1476.51 1326.59 1481.39 Q1322.24 1486.25 1314.97 1486.25 Q1307.68 1486.25 1303.3 1481.39 Q1298.95 1476.53 1298.95 1468.33 Q1298.95 1460.14 1303.3 1455.28 Q1307.68 1450.39 1314.97 1450.39 Z" fill="#000000" fill-rule="evenodd" fill-opacity="1" /><path clip-path="url(#clip080)" d="M1333.46 1451.02 L1362.7 1451.02 L1362.7 1454.96 L1350.43 1454.96 L1350.43 1485.58 L1345.73 1485.58 L1345.73 1454.96 L1333.46 1454.96 L1333.46 1451.02 Z" fill="#000000" fill-rule="evenodd" fill-opacity="1" /><path clip-path="url(#clip080)" d="M1375.08 1455.63 L1368.74 1472.83 L1381.45 1472.83 L1375.08 1455.63 M1372.44 1451.02 L1377.75 1451.02 L1390.92 1485.58 L1386.06 1485.58 L1382.91 1476.71 L1367.33 1476.71 L1364.18 1485.58 L1359.25 1485.58 L1372.44 1451.02 Z" fill="#000000" fill-rule="evenodd" fill-opacity="1" /><path clip-path="url(#clip080)" d="M1735.79 1451.02 L1757.64 1451.02 L1757.64 1454.96 L1740.47 1454.96 L1740.47 1465.19 L1756.93 1465.19 L1756.93 1469.12 L1740.47 1469.12 L1740.47 1481.64 L1758.06 1481.64 L1758.06 1485.58 L1735.79 1485.58 L1735.79 1451.02 Z" fill="#000000" fill-rule="evenodd" fill-opacity="1" /><path clip-path="url(#clip080)" d="M1786.46 1452.15 L1786.46 1456.71 Q1783.8 1455.44 1781.44 1454.82 Q1779.08 1454.19 1776.88 1454.19 Q1773.06 1454.19 1770.98 1455.67 Q1768.92 1457.15 1768.92 1459.89 Q1768.92 1462.18 1770.28 1463.36 Q1771.67 1464.52 1775.51 1465.23 L1778.34 1465.81 Q1783.57 1466.81 1786.05 1469.33 Q1788.55 1471.83 1788.55 1476.04 Q1788.55 1481.07 1785.17 1483.66 Q1781.81 1486.25 1775.31 1486.25 Q1772.85 1486.25 1770.07 1485.7 Q1767.32 1485.14 1764.36 1484.05 L1764.36 1479.24 Q1767.2 1480.83 1769.94 1481.64 Q1772.67 1482.45 1775.31 1482.45 Q1779.31 1482.45 1781.49 1480.88 Q1783.66 1479.31 1783.66 1476.39 Q1783.66 1473.84 1782.09 1472.41 Q1780.54 1470.97 1776.97 1470.26 L1774.13 1469.7 Q1768.89 1468.66 1766.56 1466.44 Q1764.22 1464.21 1764.22 1460.26 Q1764.22 1455.67 1767.44 1453.03 Q1770.68 1450.39 1776.35 1450.39 Q1778.78 1450.39 1781.3 1450.83 Q1783.82 1451.27 1786.46 1452.15 Z" fill="#000000" fill-rule="evenodd" fill-opacity="1" /><path clip-path="url(#clip080)" d="M1800.51 1454.86 L1800.51 1467.85 L1806.39 1467.85 Q1809.66 1467.85 1811.44 1466.16 Q1813.22 1464.47 1813.22 1461.34 Q1813.22 1458.24 1811.44 1456.55 Q1809.66 1454.86 1806.39 1454.86 L1800.51 1454.86 M1795.84 1451.02 L1806.39 1451.02 Q1812.2 1451.02 1815.17 1453.66 Q1818.15 1456.27 1818.15 1461.34 Q1818.15 1466.46 1815.17 1469.08 Q1812.2 1471.69 1806.39 1471.69 L1800.51 1471.69 L1800.51 1485.58 L1795.84 1485.58 L1795.84 1451.02 Z" fill="#000000" fill-rule="evenodd" fill-opacity="1" /><path clip-path="url(#clip080)" d="M1824.43 1451.02 L1830.72 1451.02 L1846.05 1479.93 L1846.05 1451.02 L1850.58 1451.02 L1850.58 1485.58 L1844.29 1485.58 L1828.96 1456.67 L1828.96 1485.58 L1824.43 1485.58 L1824.43 1451.02 Z" fill="#000000" fill-rule="evenodd" fill-opacity="1" /><path clip-path="url(#clip080)" d="M2197.2 1453.68 L2197.2 1458.61 Q2194.83 1456.41 2192.15 1455.33 Q2189.49 1454.24 2186.48 1454.24 Q2180.55 1454.24 2177.4 1457.87 Q2174.26 1461.48 2174.26 1468.33 Q2174.26 1475.16 2177.4 1478.8 Q2180.55 1482.41 2186.48 1482.41 Q2189.49 1482.41 2192.15 1481.32 Q2194.83 1480.23 2197.2 1478.03 L2197.2 1482.92 Q2194.74 1484.58 2191.99 1485.42 Q2189.26 1486.25 2186.2 1486.25 Q2178.35 1486.25 2173.84 1481.46 Q2169.33 1476.64 2169.33 1468.33 Q2169.33 1460 2173.84 1455.21 Q2178.35 1450.39 2186.2 1450.39 Q2189.3 1450.39 2192.03 1451.23 Q2194.79 1452.04 2197.2 1453.68 Z" fill="#000000" fill-rule="evenodd" fill-opacity="1" /><path clip-path="url(#clip080)" d="M2214.28 1462.64 Q2210.85 1462.64 2208.86 1465.33 Q2206.87 1467.99 2206.87 1472.64 Q2206.87 1477.29 2208.84 1479.98 Q2210.83 1482.64 2214.28 1482.64 Q2217.68 1482.64 2219.67 1479.95 Q2221.66 1477.27 2221.66 1472.64 Q2221.66 1468.03 2219.67 1465.35 Q2217.68 1462.64 2214.28 1462.64 M2214.28 1459.03 Q2219.83 1459.03 2223.01 1462.64 Q2226.18 1466.25 2226.18 1472.64 Q2226.18 1479.01 2223.01 1482.64 Q2219.83 1486.25 2214.28 1486.25 Q2208.7 1486.25 2205.53 1482.64 Q2202.38 1479.01 2202.38 1472.64 Q2202.38 1466.25 2205.53 1462.64 Q2208.7 1459.03 2214.28 1459.03 Z" fill="#000000" fill-rule="evenodd" fill-opacity="1" /><path clip-path="url(#clip080)" d="M2253.42 1464.63 Q2255.02 1461.76 2257.24 1460.39 Q2259.46 1459.03 2262.47 1459.03 Q2266.52 1459.03 2268.72 1461.88 Q2270.92 1464.7 2270.92 1469.93 L2270.92 1485.58 L2266.64 1485.58 L2266.64 1470.07 Q2266.64 1466.34 2265.32 1464.54 Q2264 1462.73 2261.29 1462.73 Q2257.98 1462.73 2256.06 1464.93 Q2254.14 1467.13 2254.14 1470.93 L2254.14 1485.58 L2249.86 1485.58 L2249.86 1470.07 Q2249.86 1466.32 2248.54 1464.54 Q2247.22 1462.73 2244.46 1462.73 Q2241.2 1462.73 2239.28 1464.95 Q2237.36 1467.15 2237.36 1470.93 L2237.36 1485.58 L2233.07 1485.58 L2233.07 1459.65 L2237.36 1459.65 L2237.36 1463.68 Q2238.82 1461.3 2240.85 1460.16 Q2242.89 1459.03 2245.69 1459.03 Q2248.51 1459.03 2250.48 1460.46 Q2252.47 1461.9 2253.42 1464.63 Z" fill="#000000" fill-rule="evenodd" fill-opacity="1" /><path clip-path="url(#clip080)" d="M2298.03 1472.64 Q2298.03 1467.94 2296.08 1465.28 Q2294.16 1462.59 2290.78 1462.59 Q2287.4 1462.59 2285.46 1465.28 Q2283.54 1467.94 2283.54 1472.64 Q2283.54 1477.34 2285.46 1480.02 Q2287.4 1482.69 2290.78 1482.69 Q2294.16 1482.69 2296.08 1480.02 Q2298.03 1477.34 2298.03 1472.64 M2283.54 1463.59 Q2284.88 1461.27 2286.92 1460.16 Q2288.98 1459.03 2291.82 1459.03 Q2296.55 1459.03 2299.49 1462.78 Q2302.45 1466.53 2302.45 1472.64 Q2302.45 1478.75 2299.49 1482.5 Q2296.55 1486.25 2291.82 1486.25 Q2288.98 1486.25 2286.92 1485.14 Q2284.88 1484.01 2283.54 1481.69 L2283.54 1485.58 L2279.26 1485.58 L2279.26 1449.56 L2283.54 1449.56 L2283.54 1463.59 Z" fill="#000000" fill-rule="evenodd" fill-opacity="1" /><path clip-path="url(#clip080)" d="M2309.51 1459.65 L2313.77 1459.65 L2313.77 1485.58 L2309.51 1485.58 L2309.51 1459.65 M2309.51 1449.56 L2313.77 1449.56 L2313.77 1454.96 L2309.51 1454.96 L2309.51 1449.56 Z" fill="#000000" fill-rule="evenodd" fill-opacity="1" /><path clip-path="url(#clip080)" d="M2344.23 1469.93 L2344.23 1485.58 L2339.97 1485.58 L2339.97 1470.07 Q2339.97 1466.39 2338.54 1464.56 Q2337.1 1462.73 2334.23 1462.73 Q2330.78 1462.73 2328.79 1464.93 Q2326.8 1467.13 2326.8 1470.93 L2326.8 1485.58 L2322.52 1485.58 L2322.52 1459.65 L2326.8 1459.65 L2326.8 1463.68 Q2328.33 1461.34 2330.39 1460.19 Q2332.47 1459.03 2335.18 1459.03 Q2339.65 1459.03 2341.94 1461.81 Q2344.23 1464.56 2344.23 1469.93 Z" fill="#000000" fill-rule="evenodd" fill-opacity="1" /><path clip-path="url(#clip080)" d="M2374.9 1471.55 L2374.9 1473.64 L2355.32 1473.64 Q2355.6 1478.03 2357.96 1480.35 Q2360.34 1482.64 2364.58 1482.64 Q2367.03 1482.64 2369.32 1482.04 Q2371.64 1481.44 2373.91 1480.23 L2373.91 1484.26 Q2371.62 1485.23 2369.21 1485.74 Q2366.8 1486.25 2364.32 1486.25 Q2358.12 1486.25 2354.49 1482.64 Q2350.88 1479.03 2350.88 1472.87 Q2350.88 1466.51 2354.3 1462.78 Q2357.75 1459.03 2363.58 1459.03 Q2368.81 1459.03 2371.85 1462.41 Q2374.9 1465.77 2374.9 1471.55 M2370.64 1470.3 Q2370.6 1466.81 2368.68 1464.72 Q2366.78 1462.64 2363.63 1462.64 Q2360.06 1462.64 2357.91 1464.65 Q2355.78 1466.67 2355.46 1470.33 L2370.64 1470.3 Z" fill="#000000" fill-rule="evenodd" fill-opacity="1" /><path clip-path="url(#clip080)" d="M2398.95 1463.59 L2398.95 1449.56 L2403.21 1449.56 L2403.21 1485.58 L2398.95 1485.58 L2398.95 1481.69 Q2397.61 1484.01 2395.55 1485.14 Q2393.51 1486.25 2390.64 1486.25 Q2385.94 1486.25 2382.98 1482.5 Q2380.04 1478.75 2380.04 1472.64 Q2380.04 1466.53 2382.98 1462.78 Q2385.94 1459.03 2390.64 1459.03 Q2393.51 1459.03 2395.55 1460.16 Q2397.61 1461.27 2398.95 1463.59 M2384.44 1472.64 Q2384.44 1477.34 2386.36 1480.02 Q2388.31 1482.69 2391.68 1482.69 Q2395.06 1482.69 2397.01 1480.02 Q2398.95 1477.34 2398.95 1472.64 Q2398.95 1467.94 2397.01 1465.28 Q2395.06 1462.59 2391.68 1462.59 Q2388.31 1462.59 2386.36 1465.28 Q2384.44 1467.94 2384.44 1472.64 Z" fill="#000000" fill-rule="evenodd" fill-opacity="1" /><path clip-path="url(#clip080)" d="M1208.5 1520.52 L1218.09 1520.52 L1230.21 1552.86 L1242.4 1520.52 L1251.98 1520.52 L1251.98 1568.04 L1245.71 1568.04 L1245.71 1526.32 L1233.46 1558.91 L1227 1558.91 L1214.74 1526.32 L1214.74 1568.04 L1208.5 1568.04 L1208.5 1520.52 Z" fill="#000000" fill-rule="evenodd" fill-opacity="1" /><path clip-path="url(#clip080)" d="M1278.3 1536.5 Q1273.59 1536.5 1270.86 1540.19 Q1268.12 1543.85 1268.12 1550.25 Q1268.12 1556.65 1270.83 1560.34 Q1273.56 1564 1278.3 1564 Q1282.98 1564 1285.72 1560.31 Q1288.46 1556.62 1288.46 1550.25 Q1288.46 1543.92 1285.72 1540.23 Q1282.98 1536.5 1278.3 1536.5 M1278.3 1531.54 Q1285.94 1531.54 1290.3 1536.5 Q1294.66 1541.47 1294.66 1550.25 Q1294.66 1559 1290.3 1564 Q1285.94 1568.97 1278.3 1568.97 Q1270.63 1568.97 1266.27 1564 Q1261.94 1559 1261.94 1550.25 Q1261.94 1541.47 1266.27 1536.5 Q1270.63 1531.54 1278.3 1531.54 Z" fill="#000000" fill-rule="evenodd" fill-opacity="1" /><path clip-path="url(#clip080)" d="M1327.83 1537.81 L1327.83 1518.52 L1333.69 1518.52 L1333.69 1568.04 L1327.83 1568.04 L1327.83 1562.7 Q1325.98 1565.88 1323.15 1567.44 Q1320.35 1568.97 1316.4 1568.97 Q1309.94 1568.97 1305.87 1563.81 Q1301.83 1558.65 1301.83 1550.25 Q1301.83 1541.85 1305.87 1536.69 Q1309.94 1531.54 1316.4 1531.54 Q1320.35 1531.54 1323.15 1533.1 Q1325.98 1534.62 1327.83 1537.81 M1307.87 1550.25 Q1307.87 1556.71 1310.52 1560.4 Q1313.19 1564.07 1317.84 1564.07 Q1322.48 1564.07 1325.16 1560.4 Q1327.83 1556.71 1327.83 1550.25 Q1327.83 1543.79 1325.16 1540.13 Q1322.48 1536.44 1317.84 1536.44 Q1313.19 1536.44 1310.52 1540.13 Q1307.87 1543.79 1307.87 1550.25 Z" fill="#000000" fill-rule="evenodd" fill-opacity="1" /><path clip-path="url(#clip080)" d="M1376.24 1548.76 L1376.24 1551.62 L1349.31 1551.62 Q1349.7 1557.67 1352.94 1560.85 Q1356.22 1564 1362.05 1564 Q1365.42 1564 1368.57 1563.17 Q1371.75 1562.35 1374.87 1560.69 L1374.87 1566.23 Q1371.72 1567.57 1368.41 1568.27 Q1365.1 1568.97 1361.7 1568.97 Q1353.17 1568.97 1348.17 1564 Q1343.2 1559.04 1343.2 1550.57 Q1343.2 1541.82 1347.91 1536.69 Q1352.66 1531.54 1360.68 1531.54 Q1367.87 1531.54 1372.04 1536.18 Q1376.24 1540.8 1376.24 1548.76 M1370.38 1547.04 Q1370.32 1542.23 1367.68 1539.37 Q1365.07 1536.5 1360.74 1536.5 Q1355.84 1536.5 1352.88 1539.27 Q1349.95 1542.04 1349.51 1547.07 L1370.38 1547.04 Z" fill="#000000" fill-rule="evenodd" fill-opacity="1" /><path clip-path="url(#clip080)" d="M1385.85 1518.52 L1391.71 1518.52 L1391.71 1568.04 L1385.85 1568.04 L1385.85 1518.52 Z" fill="#000000" fill-rule="evenodd" fill-opacity="1" /><polyline clip-path="url(#clip082)" style="stroke:#000000; stroke-linecap:round; stroke-linejoin:round; stroke-width:2; stroke-opacity:0.1; fill:none" points="247.459,1386.4 2352.76,1386.4 "/>
<polyline clip-path="url(#clip082)" style="stroke:#000000; stroke-linecap:round; stroke-linejoin:round; stroke-width:2; stroke-opacity:0.1; fill:none" points="247.459,1102.29 2352.76,1102.29 "/>
<polyline clip-path="url(#clip082)" style="stroke:#000000; stroke-linecap:round; stroke-linejoin:round; stroke-width:2; stroke-opacity:0.1; fill:none" points="247.459,818.186 2352.76,818.186 "/>
<polyline clip-path="url(#clip082)" style="stroke:#000000; stroke-linecap:round; stroke-linejoin:round; stroke-width:2; stroke-opacity:0.1; fill:none" points="247.459,534.081 2352.76,534.081 "/>
<polyline clip-path="url(#clip082)" style="stroke:#000000; stroke-linecap:round; stroke-linejoin:round; stroke-width:2; stroke-opacity:0.1; fill:none" points="247.459,249.977 2352.76,249.977 "/>
<polyline clip-path="url(#clip080)" style="stroke:#000000; stroke-linecap:round; stroke-linejoin:round; stroke-width:4; stroke-opacity:1; fill:none" points="247.459,1423.18 247.459,123.472 "/>
<polyline clip-path="url(#clip080)" style="stroke:#000000; stroke-linecap:round; stroke-linejoin:round; stroke-width:4; stroke-opacity:1; fill:none" points="247.459,1386.4 266.356,1386.4 "/>
<polyline clip-path="url(#clip080)" style="stroke:#000000; stroke-linecap:round; stroke-linejoin:round; stroke-width:4; stroke-opacity:1; fill:none" points="247.459,1102.29 266.356,1102.29 "/>
<polyline clip-path="url(#clip080)" style="stroke:#000000; stroke-linecap:round; stroke-linejoin:round; stroke-width:4; stroke-opacity:1; fill:none" points="247.459,818.186 266.356,818.186 "/>
<polyline clip-path="url(#clip080)" style="stroke:#000000; stroke-linecap:round; stroke-linejoin:round; stroke-width:4; stroke-opacity:1; fill:none" points="247.459,534.081 266.356,534.081 "/>
<polyline clip-path="url(#clip080)" style="stroke:#000000; stroke-linecap:round; stroke-linejoin:round; stroke-width:4; stroke-opacity:1; fill:none" points="247.459,249.977 266.356,249.977 "/>
<path clip-path="url(#clip080)" d="M154.283 1372.19 Q150.672 1372.19 148.843 1375.76 Q147.038 1379.3 147.038 1386.43 Q147.038 1393.54 148.843 1397.1 Q150.672 1400.64 154.283 1400.64 Q157.917 1400.64 159.723 1397.1 Q161.552 1393.54 161.552 1386.43 Q161.552 1379.3 159.723 1375.76 Q157.917 1372.19 154.283 1372.19 M154.283 1368.49 Q160.093 1368.49 163.149 1373.1 Q166.227 1377.68 166.227 1386.43 Q166.227 1395.16 163.149 1399.76 Q160.093 1404.35 154.283 1404.35 Q148.473 1404.35 145.394 1399.76 Q142.339 1395.16 142.339 1386.43 Q142.339 1377.68 145.394 1373.1 Q148.473 1368.49 154.283 1368.49 Z" fill="#000000" fill-rule="evenodd" fill-opacity="1" /><path clip-path="url(#clip080)" d="M174.445 1397.8 L179.329 1397.8 L179.329 1403.68 L174.445 1403.68 L174.445 1397.8 Z" fill="#000000" fill-rule="evenodd" fill-opacity="1" /><path clip-path="url(#clip080)" d="M199.514 1372.19 Q195.903 1372.19 194.075 1375.76 Q192.269 1379.3 192.269 1386.43 Q192.269 1393.54 194.075 1397.1 Q195.903 1400.64 199.514 1400.64 Q203.149 1400.64 204.954 1397.1 Q206.783 1393.54 206.783 1386.43 Q206.783 1379.3 204.954 1375.76 Q203.149 1372.19 199.514 1372.19 M199.514 1368.49 Q205.324 1368.49 208.38 1373.1 Q211.459 1377.68 211.459 1386.43 Q211.459 1395.16 208.38 1399.76 Q205.324 1404.35 199.514 1404.35 Q193.704 1404.35 190.625 1399.76 Q187.57 1395.16 187.57 1386.43 Q187.57 1377.68 190.625 1373.1 Q193.704 1368.49 199.514 1368.49 Z" fill="#000000" fill-rule="evenodd" fill-opacity="1" /><path clip-path="url(#clip080)" d="M149.306 1115.64 L165.626 1115.64 L165.626 1119.57 L143.681 1119.57 L143.681 1115.64 Q146.343 1112.88 150.927 1108.25 Q155.533 1103.6 156.714 1102.26 Q158.959 1099.73 159.839 1098 Q160.741 1096.24 160.741 1094.55 Q160.741 1091.79 158.797 1090.06 Q156.876 1088.32 153.774 1088.32 Q151.575 1088.32 149.121 1089.08 Q146.691 1089.85 143.913 1091.4 L143.913 1086.68 Q146.737 1085.54 149.191 1084.96 Q151.644 1084.39 153.681 1084.39 Q159.052 1084.39 162.246 1087.07 Q165.44 1089.76 165.44 1094.25 Q165.44 1096.38 164.63 1098.3 Q163.843 1100.2 161.737 1102.79 Q161.158 1103.46 158.056 1106.68 Q154.954 1109.87 149.306 1115.64 Z" fill="#000000" fill-rule="evenodd" fill-opacity="1" /><path clip-path="url(#clip080)" d="M175.44 1113.69 L180.325 1113.69 L180.325 1119.57 L175.44 1119.57 L175.44 1113.69 Z" fill="#000000" fill-rule="evenodd" fill-opacity="1" /><path clip-path="url(#clip080)" d="M190.556 1085.01 L208.912 1085.01 L208.912 1088.95 L194.838 1088.95 L194.838 1097.42 Q195.857 1097.07 196.875 1096.91 Q197.894 1096.72 198.912 1096.72 Q204.699 1096.72 208.079 1099.9 Q211.459 1103.07 211.459 1108.48 Q211.459 1114.06 207.987 1117.16 Q204.514 1120.24 198.195 1120.24 Q196.019 1120.24 193.75 1119.87 Q191.505 1119.5 189.098 1118.76 L189.098 1114.06 Q191.181 1115.2 193.403 1115.75 Q195.625 1116.31 198.102 1116.31 Q202.107 1116.31 204.445 1114.2 Q206.783 1112.09 206.783 1108.48 Q206.783 1104.87 204.445 1102.77 Q202.107 1100.66 198.102 1100.66 Q196.227 1100.66 194.352 1101.08 Q192.5 1101.49 190.556 1102.37 L190.556 1085.01 Z" fill="#000000" fill-rule="evenodd" fill-opacity="1" /><path clip-path="url(#clip080)" d="M144.329 800.906 L162.686 800.906 L162.686 804.841 L148.612 804.841 L148.612 813.314 Q149.63 812.966 150.649 812.804 Q151.667 812.619 152.686 812.619 Q158.473 812.619 161.852 815.79 Q165.232 818.962 165.232 824.378 Q165.232 829.957 161.76 833.059 Q158.288 836.137 151.968 836.137 Q149.792 836.137 147.524 835.767 Q145.279 835.397 142.871 834.656 L142.871 829.957 Q144.954 831.091 147.177 831.647 Q149.399 832.202 151.876 832.202 Q155.88 832.202 158.218 830.096 Q160.556 827.989 160.556 824.378 Q160.556 820.767 158.218 818.661 Q155.88 816.554 151.876 816.554 Q150.001 816.554 148.126 816.971 Q146.274 817.388 144.329 818.267 L144.329 800.906 Z" fill="#000000" fill-rule="evenodd" fill-opacity="1" /><path clip-path="url(#clip080)" d="M174.445 829.587 L179.329 829.587 L179.329 835.466 L174.445 835.466 L174.445 829.587 Z" fill="#000000" fill-rule="evenodd" fill-opacity="1" /><path clip-path="url(#clip080)" d="M199.514 803.985 Q195.903 803.985 194.075 807.55 Q192.269 811.091 192.269 818.221 Q192.269 825.327 194.075 828.892 Q195.903 832.434 199.514 832.434 Q203.149 832.434 204.954 828.892 Q206.783 825.327 206.783 818.221 Q206.783 811.091 204.954 807.55 Q203.149 803.985 199.514 803.985 M199.514 800.281 Q205.324 800.281 208.38 804.888 Q211.459 809.471 211.459 818.221 Q211.459 826.948 208.38 831.554 Q205.324 836.137 199.514 836.137 Q193.704 836.137 190.625 831.554 Q187.57 826.948 187.57 818.221 Q187.57 809.471 190.625 804.888 Q193.704 800.281 199.514 800.281 Z" fill="#000000" fill-rule="evenodd" fill-opacity="1" /><path clip-path="url(#clip080)" d="M144.098 516.801 L166.32 516.801 L166.32 518.792 L153.774 551.361 L148.89 551.361 L160.695 520.737 L144.098 520.737 L144.098 516.801 Z" fill="#000000" fill-rule="evenodd" fill-opacity="1" /><path clip-path="url(#clip080)" d="M175.44 545.482 L180.325 545.482 L180.325 551.361 L175.44 551.361 L175.44 545.482 Z" fill="#000000" fill-rule="evenodd" fill-opacity="1" /><path clip-path="url(#clip080)" d="M190.556 516.801 L208.912 516.801 L208.912 520.737 L194.838 520.737 L194.838 529.209 Q195.857 528.862 196.875 528.7 Q197.894 528.514 198.912 528.514 Q204.699 528.514 208.079 531.686 Q211.459 534.857 211.459 540.274 Q211.459 545.852 207.987 548.954 Q204.514 552.033 198.195 552.033 Q196.019 552.033 193.75 551.662 Q191.505 551.292 189.098 550.551 L189.098 545.852 Q191.181 546.986 193.403 547.542 Q195.625 548.098 198.102 548.098 Q202.107 548.098 204.445 545.991 Q206.783 543.885 206.783 540.274 Q206.783 536.662 204.445 534.556 Q202.107 532.45 198.102 532.45 Q196.227 532.45 194.352 532.866 Q192.5 533.283 190.556 534.162 L190.556 516.801 Z" fill="#000000" fill-rule="evenodd" fill-opacity="1" /><path clip-path="url(#clip080)" d="M114.931 263.322 L122.57 263.322 L122.57 236.956 L114.26 238.623 L114.26 234.363 L122.524 232.697 L127.2 232.697 L127.2 263.322 L134.839 263.322 L134.839 267.257 L114.931 267.257 L114.931 263.322 Z" fill="#000000" fill-rule="evenodd" fill-opacity="1" /><path clip-path="url(#clip080)" d="M154.283 235.775 Q150.672 235.775 148.843 239.34 Q147.038 242.882 147.038 250.011 Q147.038 257.118 148.843 260.683 Q150.672 264.224 154.283 264.224 Q157.917 264.224 159.723 260.683 Q161.552 257.118 161.552 250.011 Q161.552 242.882 159.723 239.34 Q157.917 235.775 154.283 235.775 M154.283 232.072 Q160.093 232.072 163.149 236.678 Q166.227 241.261 166.227 250.011 Q166.227 258.738 163.149 263.345 Q160.093 267.928 154.283 267.928 Q148.473 267.928 145.394 263.345 Q142.339 258.738 142.339 250.011 Q142.339 241.261 145.394 236.678 Q148.473 232.072 154.283 232.072 Z" fill="#000000" fill-rule="evenodd" fill-opacity="1" /><path clip-path="url(#clip080)" d="M174.445 261.377 L179.329 261.377 L179.329 267.257 L174.445 267.257 L174.445 261.377 Z" fill="#000000" fill-rule="evenodd" fill-opacity="1" /><path clip-path="url(#clip080)" d="M199.514 235.775 Q195.903 235.775 194.075 239.34 Q192.269 242.882 192.269 250.011 Q192.269 257.118 194.075 260.683 Q195.903 264.224 199.514 264.224 Q203.149 264.224 204.954 260.683 Q206.783 257.118 206.783 250.011 Q206.783 242.882 204.954 239.34 Q203.149 235.775 199.514 235.775 M199.514 232.072 Q205.324 232.072 208.38 236.678 Q211.459 241.261 211.459 250.011 Q211.459 258.738 208.38 263.345 Q205.324 267.928 199.514 267.928 Q193.704 267.928 190.625 263.345 Q187.57 258.738 187.57 250.011 Q187.57 241.261 190.625 236.678 Q193.704 232.072 199.514 232.072 Z" fill="#000000" fill-rule="evenodd" fill-opacity="1" /><path clip-path="url(#clip080)" d="M41.7242 837.556 Q42.4244 835.487 44.7161 833.546 Q47.0077 831.572 51.0181 829.599 L64.0042 823.074 L64.0042 829.981 L51.8138 836.06 Q47.0395 838.415 45.48 840.643 Q43.9204 842.84 43.9204 846.659 L43.9204 853.661 L64.0042 853.661 L64.0042 860.091 L16.4842 860.091 L16.4842 845.577 Q16.4842 837.429 19.8898 833.418 Q23.2955 829.408 30.1704 829.408 Q34.6582 829.408 37.6183 831.509 Q40.5784 833.577 41.7242 837.556 M21.7677 853.661 L38.6368 853.661 L38.6368 845.577 Q38.6368 840.93 36.5043 838.574 Q34.34 836.187 30.1704 836.187 Q26.0009 836.187 23.9002 838.574 Q21.7677 840.93 21.7677 845.577 L21.7677 853.661 Z" fill="#000000" fill-rule="evenodd" fill-opacity="1" /><path clip-path="url(#clip080)" d="M16.4842 814.799 L16.4842 805.218 L48.8219 793.092 L16.4842 780.901 L16.4842 771.321 L64.0042 771.321 L64.0042 777.591 L22.277 777.591 L54.8694 789.845 L54.8694 796.306 L22.277 808.56 L64.0042 808.56 L64.0042 814.799 L16.4842 814.799 Z" fill="#000000" fill-rule="evenodd" fill-opacity="1" /><path clip-path="url(#clip080)" d="M18.0438 730.071 L24.314 730.071 Q22.5634 733.731 21.704 736.978 Q20.8447 740.224 20.8447 743.248 Q20.8447 748.5 22.8817 751.364 Q24.9187 754.197 28.6745 754.197 Q31.8255 754.197 33.4488 752.319 Q35.0402 750.409 36.0269 745.126 L36.8226 741.243 Q38.1912 734.05 41.6605 730.644 Q45.098 727.206 50.8908 727.206 Q57.7976 727.206 61.3624 731.853 Q64.9272 736.469 64.9272 745.412 Q64.9272 748.786 64.1633 752.606 Q63.3994 756.393 61.9035 760.467 L55.2831 760.467 Q57.4793 756.552 58.5933 752.797 Q59.7073 749.041 59.7073 745.412 Q59.7073 739.906 57.543 736.914 Q55.3786 733.922 51.3682 733.922 Q47.8671 733.922 45.8937 736.087 Q43.9204 738.219 42.9337 743.121 L42.1698 747.036 Q40.7375 754.229 37.682 757.444 Q34.6264 760.658 29.1837 760.658 Q22.8817 760.658 19.2532 756.234 Q15.6248 751.778 15.6248 743.98 Q15.6248 740.638 16.2295 737.169 Q16.8343 733.699 18.0438 730.071 Z" fill="#000000" fill-rule="evenodd" fill-opacity="1" /><path clip-path="url(#clip080)" d="M16.4842 717.18 L16.4842 687.134 L21.895 687.134 L21.895 710.751 L35.9632 710.751 L35.9632 688.121 L41.3741 688.121 L41.3741 710.751 L58.5933 710.751 L58.5933 686.561 L64.0042 686.561 L64.0042 717.18 L16.4842 717.18 Z" fill="#000000" fill-rule="evenodd" fill-opacity="1" /><path clip-path="url(#clip080)" d="M743.23 44.2197 Q745.863 45.1109 748.334 48.0275 Q750.845 50.9442 753.357 56.0483 L761.661 72.576 L752.871 72.576 L745.133 57.061 Q742.136 50.9847 739.3 48.9997 Q736.505 47.0148 731.644 47.0148 L722.732 47.0148 L722.732 72.576 L714.549 72.576 L714.549 12.096 L733.021 12.096 Q743.392 12.096 748.496 16.4305 Q753.6 20.7649 753.6 29.5149 Q753.6 35.2267 750.926 38.994 Q748.293 42.7613 743.23 44.2197 M722.732 18.8205 L722.732 40.2903 L733.021 40.2903 Q738.936 40.2903 741.933 37.5762 Q744.971 34.8216 744.971 29.5149 Q744.971 24.2082 741.933 21.5346 Q738.936 18.8205 733.021 18.8205 L722.732 18.8205 Z" fill="#000000" fill-rule="evenodd" fill-opacity="1" /><path clip-path="url(#clip080)" d="M772.193 12.096 L784.387 12.096 L799.821 53.2532 L815.336 12.096 L827.529 12.096 L827.529 72.576 L819.549 72.576 L819.549 19.4686 L803.953 60.9499 L795.729 60.9499 L780.133 19.4686 L780.133 72.576 L772.193 72.576 L772.193 12.096 Z" fill="#000000" fill-rule="evenodd" fill-opacity="1" /><path clip-path="url(#clip080)" d="M880.029 14.0809 L880.029 22.0612 Q875.37 19.8332 871.238 18.7395 Q867.106 17.6457 863.258 17.6457 Q856.574 17.6457 852.928 20.2383 Q849.323 22.8309 849.323 27.611 Q849.323 31.6214 851.713 33.6873 Q854.143 35.7128 860.868 36.9686 L865.81 37.9813 Q874.965 39.7232 879.299 44.1387 Q883.674 48.5136 883.674 55.8863 Q883.674 64.6767 877.76 69.2137 Q871.886 73.7508 860.503 73.7508 Q856.209 73.7508 851.348 72.7785 Q846.528 71.8063 841.342 69.9024 L841.342 61.4765 Q846.325 64.2716 851.105 65.6895 Q855.885 67.1073 860.503 67.1073 Q867.511 67.1073 871.319 64.3527 Q875.127 61.598 875.127 56.4939 Q875.127 52.0379 872.372 49.5264 Q869.658 47.0148 863.42 45.759 L858.437 44.7868 Q849.282 42.9639 845.191 39.075 Q841.099 35.1862 841.099 28.2591 Q841.099 20.2383 846.73 15.6203 Q852.401 11.0023 862.326 11.0023 Q866.58 11.0023 870.995 11.7719 Q875.411 12.5416 880.029 14.0809 Z" fill="#000000" fill-rule="evenodd" fill-opacity="1" /><path clip-path="url(#clip080)" d="M896.435 12.096 L934.675 12.096 L934.675 18.9825 L904.618 18.9825 L904.618 36.8875 L933.419 36.8875 L933.419 43.7741 L904.618 43.7741 L904.618 65.6895 L935.404 65.6895 L935.404 72.576 L896.435 72.576 L896.435 12.096 Z" fill="#000000" fill-rule="evenodd" fill-opacity="1" /><path clip-path="url(#clip080)" d="M975.225 12.096 L1009.98 12.096 L1009.98 18.9825 L983.408 18.9825 L983.408 36.8065 L1007.39 36.8065 L1007.39 43.6931 L983.408 43.6931 L983.408 72.576 L975.225 72.576 L975.225 12.096 Z" fill="#000000" fill-rule="evenodd" fill-opacity="1" /><path clip-path="url(#clip080)" d="M1037.24 32.4315 Q1031.25 32.4315 1027.77 37.1306 Q1024.28 41.7891 1024.28 49.9314 Q1024.28 58.0738 1027.72 62.7728 Q1031.21 67.4314 1037.24 67.4314 Q1043.2 67.4314 1046.68 62.7323 Q1050.17 58.0333 1050.17 49.9314 Q1050.17 41.8701 1046.68 37.1711 Q1043.2 32.4315 1037.24 32.4315 M1037.24 26.1121 Q1046.97 26.1121 1052.52 32.4315 Q1058.07 38.7509 1058.07 49.9314 Q1058.07 61.0714 1052.52 67.4314 Q1046.97 73.7508 1037.24 73.7508 Q1027.48 73.7508 1021.93 67.4314 Q1016.42 61.0714 1016.42 49.9314 Q1016.42 38.7509 1021.93 32.4315 Q1027.48 26.1121 1037.24 26.1121 Z" fill="#000000" fill-rule="evenodd" fill-opacity="1" /><path clip-path="url(#clip080)" d="M1096.71 34.1734 Q1095.46 33.4443 1093.96 33.1202 Q1092.5 32.7556 1090.72 32.7556 Q1084.4 32.7556 1080.99 36.8875 Q1077.63 40.9789 1077.63 48.6757 L1077.63 72.576 L1070.14 72.576 L1070.14 27.2059 L1077.63 27.2059 L1077.63 34.2544 Q1079.98 30.1225 1083.75 28.1376 Q1087.52 26.1121 1092.9 26.1121 Q1093.67 26.1121 1094.6 26.2337 Q1095.54 26.3147 1096.67 26.5172 L1096.71 34.1734 Z" fill="#000000" fill-rule="evenodd" fill-opacity="1" /><path clip-path="url(#clip080)" d="M1131.23 12.096 L1143.42 12.096 L1158.85 53.2532 L1174.37 12.096 L1186.56 12.096 L1186.56 72.576 L1178.58 72.576 L1178.58 19.4686 L1162.98 60.9499 L1154.76 60.9499 L1139.16 19.4686 L1139.16 72.576 L1131.23 72.576 L1131.23 12.096 Z" fill="#000000" fill-rule="evenodd" fill-opacity="1" /><path clip-path="url(#clip080)" d="M1220.06 32.4315 Q1214.07 32.4315 1210.58 37.1306 Q1207.1 41.7891 1207.1 49.9314 Q1207.1 58.0738 1210.54 62.7728 Q1214.03 67.4314 1220.06 67.4314 Q1226.02 67.4314 1229.5 62.7323 Q1232.98 58.0333 1232.98 49.9314 Q1232.98 41.8701 1229.5 37.1711 Q1226.02 32.4315 1220.06 32.4315 M1220.06 26.1121 Q1229.78 26.1121 1235.33 32.4315 Q1240.88 38.7509 1240.88 49.9314 Q1240.88 61.0714 1235.33 67.4314 Q1229.78 73.7508 1220.06 73.7508 Q1210.3 73.7508 1204.75 67.4314 Q1199.24 61.0714 1199.24 49.9314 Q1199.24 38.7509 1204.75 32.4315 Q1210.3 26.1121 1220.06 26.1121 Z" fill="#000000" fill-rule="evenodd" fill-opacity="1" /><path clip-path="url(#clip080)" d="M1283.09 34.0924 L1283.09 9.54393 L1290.55 9.54393 L1290.55 72.576 L1283.09 72.576 L1283.09 65.7705 Q1280.74 69.8214 1277.14 71.8063 Q1273.57 73.7508 1268.55 73.7508 Q1260.33 73.7508 1255.14 67.1883 Q1250 60.6258 1250 49.9314 Q1250 39.2371 1255.14 32.6746 Q1260.33 26.1121 1268.55 26.1121 Q1273.57 26.1121 1277.14 28.0971 Q1280.74 30.0415 1283.09 34.0924 M1257.69 49.9314 Q1257.69 58.1548 1261.06 62.8538 Q1264.46 67.5124 1270.37 67.5124 Q1276.29 67.5124 1279.69 62.8538 Q1283.09 58.1548 1283.09 49.9314 Q1283.09 41.7081 1279.69 37.0496 Q1276.29 32.3505 1270.37 32.3505 Q1264.46 32.3505 1261.06 37.0496 Q1257.69 41.7081 1257.69 49.9314 Z" fill="#000000" fill-rule="evenodd" fill-opacity="1" /><path clip-path="url(#clip080)" d="M1344.71 48.0275 L1344.71 51.6733 L1310.44 51.6733 Q1310.92 59.3701 1315.06 63.421 Q1319.23 67.4314 1326.64 67.4314 Q1330.93 67.4314 1334.95 66.3781 Q1339 65.3249 1342.97 63.2184 L1342.97 70.267 Q1338.96 71.9684 1334.74 72.8596 Q1330.53 73.7508 1326.2 73.7508 Q1315.34 73.7508 1308.98 67.4314 Q1302.66 61.1119 1302.66 50.3365 Q1302.66 39.1965 1308.65 32.6746 Q1314.69 26.1121 1324.9 26.1121 Q1334.05 26.1121 1339.36 32.0264 Q1344.71 37.9003 1344.71 48.0275 M1337.25 45.84 Q1337.17 39.7232 1333.81 36.0774 Q1330.49 32.4315 1324.98 32.4315 Q1318.74 32.4315 1314.97 35.9558 Q1311.25 39.4801 1310.68 45.8805 L1337.25 45.84 Z" fill="#000000" fill-rule="evenodd" fill-opacity="1" /><path clip-path="url(#clip080)" d="M1356.94 9.54393 L1364.4 9.54393 L1364.4 72.576 L1356.94 72.576 L1356.94 9.54393 Z" fill="#000000" fill-rule="evenodd" fill-opacity="1" /><path clip-path="url(#clip080)" d="M1408.91 28.5427 L1408.91 35.5912 Q1405.75 33.9709 1402.35 33.1607 Q1398.95 32.3505 1395.3 32.3505 Q1389.75 32.3505 1386.96 34.0519 Q1384.2 35.7533 1384.2 39.156 Q1384.2 41.7486 1386.19 43.2475 Q1388.17 44.7058 1394.17 46.0426 L1396.72 46.6097 Q1404.66 48.3111 1407.98 51.4303 Q1411.35 54.509 1411.35 60.0587 Q1411.35 66.3781 1406.32 70.0644 Q1401.34 73.7508 1392.59 73.7508 Q1388.94 73.7508 1384.97 73.0216 Q1381.04 72.3329 1376.67 70.9151 L1376.67 63.2184 Q1380.8 65.3654 1384.81 66.4591 Q1388.82 67.5124 1392.75 67.5124 Q1398.02 67.5124 1400.85 65.73 Q1403.69 63.9071 1403.69 60.6258 Q1403.69 57.5877 1401.62 55.9673 Q1399.6 54.3469 1392.67 52.8481 L1390.08 52.2405 Q1383.15 50.7821 1380.07 47.7845 Q1376.99 44.7463 1376.99 39.4801 Q1376.99 33.0797 1381.53 29.5959 Q1386.07 26.1121 1394.41 26.1121 Q1398.54 26.1121 1402.19 26.7198 Q1405.84 27.3274 1408.91 28.5427 Z" fill="#000000" fill-rule="evenodd" fill-opacity="1" /><path clip-path="url(#clip080)" d="M1457.69 65.6895 L1486.25 65.6895 L1486.25 72.576 L1447.84 72.576 L1447.84 65.6895 Q1452.5 60.8689 1460.52 52.7671 Q1468.58 44.6248 1470.65 42.2752 Q1474.58 37.8598 1476.12 34.8216 Q1477.7 31.7429 1477.7 28.7857 Q1477.7 23.9651 1474.3 20.927 Q1470.93 17.8888 1465.51 17.8888 Q1461.66 17.8888 1457.36 19.2256 Q1453.11 20.5624 1448.25 23.2765 L1448.25 15.0127 Q1453.19 13.0277 1457.48 12.015 Q1461.78 11.0023 1465.34 11.0023 Q1474.74 11.0023 1480.33 15.7013 Q1485.92 20.4004 1485.92 28.2591 Q1485.92 31.9859 1484.5 35.3482 Q1483.13 38.6699 1479.44 43.2069 Q1478.43 44.3817 1473 50.0125 Q1467.57 55.6027 1457.69 65.6895 Z" fill="#000000" fill-rule="evenodd" fill-opacity="1" /><path clip-path="url(#clip080)" d="M1520.92 17.4837 Q1514.6 17.4837 1511.4 23.7221 Q1508.24 29.92 1508.24 42.3968 Q1508.24 54.833 1511.4 61.0714 Q1514.6 67.2693 1520.92 67.2693 Q1527.28 67.2693 1530.44 61.0714 Q1533.64 54.833 1533.64 42.3968 Q1533.64 29.92 1530.44 23.7221 Q1527.28 17.4837 1520.92 17.4837 M1520.92 11.0023 Q1531.09 11.0023 1536.44 19.0636 Q1541.82 27.0843 1541.82 42.3968 Q1541.82 57.6687 1536.44 65.73 Q1531.09 73.7508 1520.92 73.7508 Q1510.75 73.7508 1505.37 65.73 Q1500.02 57.6687 1500.02 42.3968 Q1500.02 27.0843 1505.37 19.0636 Q1510.75 11.0023 1520.92 11.0023 Z" fill="#000000" fill-rule="evenodd" fill-opacity="1" /><path clip-path="url(#clip080)" d="M1557.62 65.6895 L1570.99 65.6895 L1570.99 19.5497 L1556.45 22.4663 L1556.45 15.0127 L1570.91 12.096 L1579.09 12.096 L1579.09 65.6895 L1592.46 65.6895 L1592.46 72.576 L1557.62 72.576 L1557.62 65.6895 Z" fill="#000000" fill-rule="evenodd" fill-opacity="1" /><path clip-path="url(#clip080)" d="M1606.92 12.096 L1645.81 12.096 L1645.81 15.5798 L1623.86 72.576 L1615.31 72.576 L1635.97 18.9825 L1606.92 18.9825 L1606.92 12.096 Z" fill="#000000" fill-rule="evenodd" fill-opacity="1" /><path clip-path="url(#clip080)" d="M1656.95 46.5287 L1678.79 46.5287 L1678.79 53.1722 L1656.95 53.1722 L1656.95 46.5287 Z" fill="#000000" fill-rule="evenodd" fill-opacity="1" /><path clip-path="url(#clip080)" d="M1698.76 65.6895 L1727.32 65.6895 L1727.32 72.576 L1688.91 72.576 L1688.91 65.6895 Q1693.57 60.8689 1701.59 52.7671 Q1709.65 44.6248 1711.72 42.2752 Q1715.65 37.8598 1717.19 34.8216 Q1718.77 31.7429 1718.77 28.7857 Q1718.77 23.9651 1715.37 20.927 Q1712 17.8888 1706.58 17.8888 Q1702.73 17.8888 1698.43 19.2256 Q1694.18 20.5624 1689.32 23.2765 L1689.32 15.0127 Q1694.26 13.0277 1698.55 12.015 Q1702.85 11.0023 1706.41 11.0023 Q1715.81 11.0023 1721.4 15.7013 Q1726.99 20.4004 1726.99 28.2591 Q1726.99 31.9859 1725.57 35.3482 Q1724.2 38.6699 1720.51 43.2069 Q1719.5 44.3817 1714.07 50.0125 Q1708.64 55.6027 1698.76 65.6895 Z" fill="#000000" fill-rule="evenodd" fill-opacity="1" /><path clip-path="url(#clip080)" d="M1761.99 17.4837 Q1755.67 17.4837 1752.47 23.7221 Q1749.31 29.92 1749.31 42.3968 Q1749.31 54.833 1752.47 61.0714 Q1755.67 67.2693 1761.99 67.2693 Q1768.35 67.2693 1771.51 61.0714 Q1774.71 54.833 1774.71 42.3968 Q1774.71 29.92 1771.51 23.7221 Q1768.35 17.4837 1761.99 17.4837 M1761.99 11.0023 Q1772.16 11.0023 1777.51 19.0636 Q1782.89 27.0843 1782.89 42.3968 Q1782.89 57.6687 1777.51 65.73 Q1772.16 73.7508 1761.99 73.7508 Q1751.82 73.7508 1746.44 65.73 Q1741.09 57.6687 1741.09 42.3968 Q1741.09 27.0843 1746.44 19.0636 Q1751.82 11.0023 1761.99 11.0023 Z" fill="#000000" fill-rule="evenodd" fill-opacity="1" /><path clip-path="url(#clip080)" d="M1804.32 65.6895 L1832.88 65.6895 L1832.88 72.576 L1794.48 72.576 L1794.48 65.6895 Q1799.14 60.8689 1807.16 52.7671 Q1815.22 44.6248 1817.29 42.2752 Q1821.22 37.8598 1822.75 34.8216 Q1824.33 31.7429 1824.33 28.7857 Q1824.33 23.9651 1820.93 20.927 Q1817.57 17.8888 1812.14 17.8888 Q1808.29 17.8888 1804 19.2256 Q1799.75 20.5624 1794.88 23.2765 L1794.88 15.0127 Q1799.83 13.0277 1804.12 12.015 Q1808.41 11.0023 1811.98 11.0023 Q1821.38 11.0023 1826.97 15.7013 Q1832.56 20.4004 1832.56 28.2591 Q1832.56 31.9859 1831.14 35.3482 Q1829.76 38.6699 1826.08 43.2069 Q1825.06 44.3817 1819.64 50.0125 Q1814.21 55.6027 1804.32 65.6895 Z" fill="#000000" fill-rule="evenodd" fill-opacity="1" /><path clip-path="url(#clip080)" d="M1857.11 65.6895 L1885.67 65.6895 L1885.67 72.576 L1847.26 72.576 L1847.26 65.6895 Q1851.92 60.8689 1859.94 52.7671 Q1868 44.6248 1870.07 42.2752 Q1874 37.8598 1875.54 34.8216 Q1877.12 31.7429 1877.12 28.7857 Q1877.12 23.9651 1873.72 20.927 Q1870.35 17.8888 1864.92 17.8888 Q1861.08 17.8888 1856.78 19.2256 Q1852.53 20.5624 1847.67 23.2765 L1847.67 15.0127 Q1852.61 13.0277 1856.9 12.015 Q1861.2 11.0023 1864.76 11.0023 Q1874.16 11.0023 1879.75 15.7013 Q1885.34 20.4004 1885.34 28.2591 Q1885.34 31.9859 1883.92 35.3482 Q1882.55 38.6699 1878.86 43.2069 Q1877.85 44.3817 1872.42 50.0125 Q1866.99 55.6027 1857.11 65.6895 Z" fill="#000000" fill-rule="evenodd" fill-opacity="1" /><path clip-path="url(#clip082)" d="M363.254 246.157 L363.254 1386.4 L757.718 1386.4 L757.718 246.157 L363.254 246.157 L363.254 246.157  Z" fill="#009af9" fill-rule="evenodd" fill-opacity="1"/>
<polyline clip-path="url(#clip082)" style="stroke:#000000; stroke-linecap:round; stroke-linejoin:round; stroke-width:4; stroke-opacity:1; fill:none" points="363.254,246.157 363.254,1386.4 757.718,1386.4 757.718,246.157 363.254,246.157 "/>
<path clip-path="url(#clip082)" d="M856.335 216.197 L856.335 1386.4 L1250.8 1386.4 L1250.8 216.197 L856.335 216.197 L856.335 216.197  Z" fill="#009af9" fill-rule="evenodd" fill-opacity="1"/>
<polyline clip-path="url(#clip082)" style="stroke:#000000; stroke-linecap:round; stroke-linejoin:round; stroke-width:4; stroke-opacity:1; fill:none" points="856.335,216.197 856.335,1386.4 1250.8,1386.4 1250.8,216.197 856.335,216.197 "/>
<path clip-path="url(#clip082)" d="M1349.42 160.256 L1349.42 1386.4 L1743.88 1386.4 L1743.88 160.256 L1349.42 160.256 L1349.42 160.256  Z" fill="#009af9" fill-rule="evenodd" fill-opacity="1"/>
<polyline clip-path="url(#clip082)" style="stroke:#000000; stroke-linecap:round; stroke-linejoin:round; stroke-width:4; stroke-opacity:1; fill:none" points="1349.42,160.256 1349.42,1386.4 1743.88,1386.4 1743.88,160.256 1349.42,160.256 "/>
<path clip-path="url(#clip082)" d="M1842.5 294.391 L1842.5 1386.4 L2236.96 1386.4 L2236.96 294.391 L1842.5 294.391 L1842.5 294.391  Z" fill="#009af9" fill-rule="evenodd" fill-opacity="1"/>
<polyline clip-path="url(#clip082)" style="stroke:#000000; stroke-linecap:round; stroke-linejoin:round; stroke-width:4; stroke-opacity:1; fill:none" points="1842.5,294.391 1842.5,1386.4 2236.96,1386.4 2236.96,294.391 1842.5,294.391 "/>
<circle clip-path="url(#clip082)" style="fill:#009af9; stroke:none; fill-opacity:0" cx="560.486" cy="246.157" r="2"/>
<circle clip-path="url(#clip082)" style="fill:#009af9; stroke:none; fill-opacity:0" cx="1053.57" cy="216.197" r="2"/>
<circle clip-path="url(#clip082)" style="fill:#009af9; stroke:none; fill-opacity:0" cx="1546.65" cy="160.256" r="2"/>
<circle clip-path="url(#clip082)" style="fill:#009af9; stroke:none; fill-opacity:0" cx="2039.73" cy="294.391" r="2"/>
<path clip-path="url(#clip080)" d="M2019.62 270.476 L2282.58 270.476 L2282.58 166.796 L2019.62 166.796  Z" fill="#ffffff" fill-rule="evenodd" fill-opacity="1"/>
<polyline clip-path="url(#clip080)" style="stroke:#000000; stroke-linecap:round; stroke-linejoin:round; stroke-width:4; stroke-opacity:1; fill:none" points="2019.62,270.476 2282.58,270.476 2282.58,166.796 2019.62,166.796 2019.62,270.476 "/>
<path clip-path="url(#clip080)" d="M2043.01 239.372 L2183.36 239.372 L2183.36 197.9 L2043.01 197.9 L2043.01 239.372  Z" fill="#009af9" fill-rule="evenodd" fill-opacity="1"/>
<polyline clip-path="url(#clip080)" style="stroke:#000000; stroke-linecap:round; stroke-linejoin:round; stroke-width:4; stroke-opacity:1; fill:none" points="2043.01,239.372 2183.36,239.372 2183.36,197.9 2043.01,197.9 2043.01,239.372 "/>
<path clip-path="url(#clip080)" d="M2220.6 238.323 Q2218.79 242.953 2217.08 244.365 Q2215.37 245.777 2212.5 245.777 L2209.09 245.777 L2209.09 242.212 L2211.59 242.212 Q2213.35 242.212 2214.33 241.379 Q2215.3 240.545 2216.48 237.443 L2217.24 235.499 L2206.76 209.99 L2211.27 209.99 L2219.37 230.268 L2227.47 209.99 L2231.99 209.99 L2220.6 238.323 Z" fill="#000000" fill-rule="evenodd" fill-opacity="1" /><path clip-path="url(#clip080)" d="M2239.28 231.981 L2246.92 231.981 L2246.92 205.615 L2238.61 207.282 L2238.61 203.022 L2246.87 201.356 L2251.55 201.356 L2251.55 231.981 L2259.19 231.981 L2259.19 235.916 L2239.28 235.916 L2239.28 231.981 Z" fill="#000000" fill-rule="evenodd" fill-opacity="1" /></svg>
