<?xml version="1.0" encoding="utf-8"?>
<svg xmlns="http://www.w3.org/2000/svg" xmlns:xlink="http://www.w3.org/1999/xlink" width="600" height="400" viewBox="0 0 2400 1600">
<defs>
  <clipPath id="clip190">
    <rect x="0" y="0" width="2400" height="1600"/>
  </clipPath>
</defs>
<path clip-path="url(#clip190)" d="
M0 1600 L2400 1600 L2400 0 L0 0  Z
  " fill="#ffffff" fill-rule="evenodd" fill-opacity="1"/>
<defs>
  <clipPath id="clip191">
    <rect x="480" y="0" width="1681" height="1600"/>
  </clipPath>
</defs>
<path clip-path="url(#clip190)" d="
M147.709 1486.45 L2352.76 1486.45 L2352.76 123.472 L147.709 123.472  Z
  " fill="#ffffff" fill-rule="evenodd" fill-opacity="1"/>
<defs>
  <clipPath id="clip192">
    <rect x="147" y="123" width="2206" height="1364"/>
  </clipPath>
</defs>
<polyline clip-path="url(#clip192)" style="stroke:#000000; stroke-linecap:round; stroke-linejoin:round; stroke-width:2; stroke-opacity:0.1; fill:none" points="
  648.06,1486.45 648.06,123.472 
  "/>
<polyline clip-path="url(#clip192)" style="stroke:#000000; stroke-linecap:round; stroke-linejoin:round; stroke-width:2; stroke-opacity:0.1; fill:none" points="
  1195.49,1486.45 1195.49,123.472 
  "/>
<polyline clip-path="url(#clip192)" style="stroke:#000000; stroke-linecap:round; stroke-linejoin:round; stroke-width:2; stroke-opacity:0.1; fill:none" points="
  1742.92,1486.45 1742.92,123.472 
  "/>
<polyline clip-path="url(#clip192)" style="stroke:#000000; stroke-linecap:round; stroke-linejoin:round; stroke-width:2; stroke-opacity:0.1; fill:none" points="
  2290.35,1486.45 2290.35,123.472 
  "/>
<polyline clip-path="url(#clip190)" style="stroke:#000000; stroke-linecap:round; stroke-linejoin:round; stroke-width:4; stroke-opacity:1; fill:none" points="
  147.709,1486.45 2352.76,1486.45 
  "/>
<polyline clip-path="url(#clip190)" style="stroke:#000000; stroke-linecap:round; stroke-linejoin:round; stroke-width:4; stroke-opacity:1; fill:none" points="
  648.06,1486.45 648.06,1467.55 
  "/>
<polyline clip-path="url(#clip190)" style="stroke:#000000; stroke-linecap:round; stroke-linejoin:round; stroke-width:4; stroke-opacity:1; fill:none" points="
  1195.49,1486.45 1195.49,1467.55 
  "/>
<polyline clip-path="url(#clip190)" style="stroke:#000000; stroke-linecap:round; stroke-linejoin:round; stroke-width:4; stroke-opacity:1; fill:none" points="
  1742.92,1486.45 1742.92,1467.55 
  "/>
<polyline clip-path="url(#clip190)" style="stroke:#000000; stroke-linecap:round; stroke-linejoin:round; stroke-width:4; stroke-opacity:1; fill:none" points="
  2290.35,1486.45 2290.35,1467.55 
  "/>
<path clip-path="url(#clip190)" d="M638.338 1514.29 L656.694 1514.29 L656.694 1518.22 L642.62 1518.22 L642.62 1526.7 Q643.639 1526.35 644.657 1526.19 Q645.676 1526 646.694 1526 Q652.481 1526 655.861 1529.17 Q659.241 1532.34 659.241 1537.76 Q659.241 1543.34 655.768 1546.44 Q652.296 1549.52 645.977 1549.52 Q643.801 1549.52 641.532 1549.15 Q639.287 1548.78 636.88 1548.04 L636.88 1543.34 Q638.963 1544.47 641.185 1545.03 Q643.407 1545.58 645.884 1545.58 Q649.889 1545.58 652.227 1543.48 Q654.565 1541.37 654.565 1537.76 Q654.565 1534.15 652.227 1532.04 Q649.889 1529.94 645.884 1529.94 Q644.009 1529.94 642.134 1530.35 Q640.282 1530.77 638.338 1531.65 L638.338 1514.29 Z" fill="#000000" fill-rule="evenodd" fill-opacity="1" /><path clip-path="url(#clip190)" d="M1170.18 1544.91 L1177.82 1544.91 L1177.82 1518.55 L1169.51 1520.21 L1169.51 1515.95 L1177.77 1514.29 L1182.45 1514.29 L1182.45 1544.91 L1190.08 1544.91 L1190.08 1548.85 L1170.18 1548.85 L1170.18 1544.91 Z" fill="#000000" fill-rule="evenodd" fill-opacity="1" /><path clip-path="url(#clip190)" d="M1209.53 1517.37 Q1205.92 1517.37 1204.09 1520.93 Q1202.28 1524.47 1202.28 1531.6 Q1202.28 1538.71 1204.09 1542.27 Q1205.92 1545.82 1209.53 1545.82 Q1213.16 1545.82 1214.97 1542.27 Q1216.8 1538.71 1216.8 1531.6 Q1216.8 1524.47 1214.97 1520.93 Q1213.16 1517.37 1209.53 1517.37 M1209.53 1513.66 Q1215.34 1513.66 1218.39 1518.27 Q1221.47 1522.85 1221.47 1531.6 Q1221.47 1540.33 1218.39 1544.94 Q1215.34 1549.52 1209.53 1549.52 Q1203.72 1549.52 1200.64 1544.94 Q1197.58 1540.33 1197.58 1531.6 Q1197.58 1522.85 1200.64 1518.27 Q1203.72 1513.66 1209.53 1513.66 Z" fill="#000000" fill-rule="evenodd" fill-opacity="1" /><path clip-path="url(#clip190)" d="M1718.1 1544.91 L1725.74 1544.91 L1725.74 1518.55 L1717.43 1520.21 L1717.43 1515.95 L1725.7 1514.29 L1730.37 1514.29 L1730.37 1544.91 L1738.01 1544.91 L1738.01 1548.85 L1718.1 1548.85 L1718.1 1544.91 Z" fill="#000000" fill-rule="evenodd" fill-opacity="1" /><path clip-path="url(#clip190)" d="M1747.5 1514.29 L1765.86 1514.29 L1765.86 1518.22 L1751.79 1518.22 L1751.79 1526.7 Q1752.8 1526.35 1753.82 1526.19 Q1754.84 1526 1755.86 1526 Q1761.65 1526 1765.03 1529.17 Q1768.41 1532.34 1768.41 1537.76 Q1768.41 1543.34 1764.93 1546.44 Q1761.46 1549.52 1755.14 1549.52 Q1752.97 1549.52 1750.7 1549.15 Q1748.45 1548.78 1746.04 1548.04 L1746.04 1543.34 Q1748.13 1544.47 1750.35 1545.03 Q1752.57 1545.58 1755.05 1545.58 Q1759.05 1545.58 1761.39 1543.48 Q1763.73 1541.37 1763.73 1537.76 Q1763.73 1534.15 1761.39 1532.04 Q1759.05 1529.94 1755.05 1529.94 Q1753.17 1529.94 1751.3 1530.35 Q1749.45 1530.77 1747.5 1531.65 L1747.5 1514.29 Z" fill="#000000" fill-rule="evenodd" fill-opacity="1" /><path clip-path="url(#clip190)" d="M2269.12 1544.91 L2285.44 1544.91 L2285.44 1548.85 L2263.5 1548.85 L2263.5 1544.91 Q2266.16 1542.16 2270.74 1537.53 Q2275.35 1532.88 2276.53 1531.53 Q2278.77 1529.01 2279.65 1527.27 Q2280.56 1525.51 2280.56 1523.82 Q2280.56 1521.07 2278.61 1519.33 Q2276.69 1517.6 2273.59 1517.6 Q2271.39 1517.6 2268.94 1518.36 Q2266.51 1519.13 2263.73 1520.68 L2263.73 1515.95 Q2266.55 1514.82 2269.01 1514.24 Q2271.46 1513.66 2273.5 1513.66 Q2278.87 1513.66 2282.06 1516.35 Q2285.26 1519.03 2285.26 1523.52 Q2285.26 1525.65 2284.45 1527.57 Q2283.66 1529.47 2281.55 1532.07 Q2280.97 1532.74 2277.87 1535.95 Q2274.77 1539.15 2269.12 1544.91 Z" fill="#000000" fill-rule="evenodd" fill-opacity="1" /><path clip-path="url(#clip190)" d="M2305.26 1517.37 Q2301.65 1517.37 2299.82 1520.93 Q2298.01 1524.47 2298.01 1531.6 Q2298.01 1538.71 2299.82 1542.27 Q2301.65 1545.82 2305.26 1545.82 Q2308.89 1545.82 2310.7 1542.27 Q2312.52 1538.71 2312.52 1531.6 Q2312.52 1524.47 2310.7 1520.93 Q2308.89 1517.37 2305.26 1517.37 M2305.26 1513.66 Q2311.07 1513.66 2314.12 1518.27 Q2317.2 1522.85 2317.2 1531.6 Q2317.2 1540.33 2314.12 1544.94 Q2311.07 1549.52 2305.26 1549.52 Q2299.45 1549.52 2296.37 1544.94 Q2293.31 1540.33 2293.31 1531.6 Q2293.31 1522.85 2296.37 1518.27 Q2299.45 1513.66 2305.26 1513.66 Z" fill="#000000" fill-rule="evenodd" fill-opacity="1" /><polyline clip-path="url(#clip192)" style="stroke:#000000; stroke-linecap:round; stroke-linejoin:round; stroke-width:2; stroke-opacity:0.1; fill:none" points="
  147.709,1290.05 2352.76,1290.05 
  "/>
<polyline clip-path="url(#clip192)" style="stroke:#000000; stroke-linecap:round; stroke-linejoin:round; stroke-width:2; stroke-opacity:0.1; fill:none" points="
  147.709,1064.45 2352.76,1064.45 
  "/>
<polyline clip-path="url(#clip192)" style="stroke:#000000; stroke-linecap:round; stroke-linejoin:round; stroke-width:2; stroke-opacity:0.1; fill:none" points="
  147.709,838.851 2352.76,838.851 
  "/>
<polyline clip-path="url(#clip192)" style="stroke:#000000; stroke-linecap:round; stroke-linejoin:round; stroke-width:2; stroke-opacity:0.1; fill:none" points="
  147.709,613.25 2352.76,613.25 
  "/>
<polyline clip-path="url(#clip192)" style="stroke:#000000; stroke-linecap:round; stroke-linejoin:round; stroke-width:2; stroke-opacity:0.1; fill:none" points="
  147.709,387.648 2352.76,387.648 
  "/>
<polyline clip-path="url(#clip192)" style="stroke:#000000; stroke-linecap:round; stroke-linejoin:round; stroke-width:2; stroke-opacity:0.1; fill:none" points="
  147.709,162.047 2352.76,162.047 
  "/>
<polyline clip-path="url(#clip190)" style="stroke:#000000; stroke-linecap:round; stroke-linejoin:round; stroke-width:4; stroke-opacity:1; fill:none" points="
  147.709,1486.45 147.709,123.472 
  "/>
<polyline clip-path="url(#clip190)" style="stroke:#000000; stroke-linecap:round; stroke-linejoin:round; stroke-width:4; stroke-opacity:1; fill:none" points="
  147.709,1290.05 166.607,1290.05 
  "/>
<polyline clip-path="url(#clip190)" style="stroke:#000000; stroke-linecap:round; stroke-linejoin:round; stroke-width:4; stroke-opacity:1; fill:none" points="
  147.709,1064.45 166.607,1064.45 
  "/>
<polyline clip-path="url(#clip190)" style="stroke:#000000; stroke-linecap:round; stroke-linejoin:round; stroke-width:4; stroke-opacity:1; fill:none" points="
  147.709,838.851 166.607,838.851 
  "/>
<polyline clip-path="url(#clip190)" style="stroke:#000000; stroke-linecap:round; stroke-linejoin:round; stroke-width:4; stroke-opacity:1; fill:none" points="
  147.709,613.25 166.607,613.25 
  "/>
<polyline clip-path="url(#clip190)" style="stroke:#000000; stroke-linecap:round; stroke-linejoin:round; stroke-width:4; stroke-opacity:1; fill:none" points="
  147.709,387.648 166.607,387.648 
  "/>
<polyline clip-path="url(#clip190)" style="stroke:#000000; stroke-linecap:round; stroke-linejoin:round; stroke-width:4; stroke-opacity:1; fill:none" points="
  147.709,162.047 166.607,162.047 
  "/>
<path clip-path="url(#clip190)" d="M50.9921 1290.51 L80.6679 1290.51 L80.6679 1294.44 L50.9921 1294.44 L50.9921 1290.51 Z" fill="#000000" fill-rule="evenodd" fill-opacity="1" /><path clip-path="url(#clip190)" d="M90.8067 1272.77 L109.163 1272.77 L109.163 1276.71 L95.0891 1276.71 L95.0891 1285.18 Q96.1076 1284.83 97.1261 1284.67 Q98.1447 1284.49 99.1632 1284.49 Q104.95 1284.49 108.33 1287.66 Q111.709 1290.83 111.709 1296.25 Q111.709 1301.82 108.237 1304.93 Q104.765 1308.01 98.4456 1308.01 Q96.2697 1308.01 94.0012 1307.63 Q91.7558 1307.26 89.3484 1306.52 L89.3484 1301.82 Q91.4317 1302.96 93.6539 1303.51 Q95.8761 1304.07 98.353 1304.07 Q102.358 1304.07 104.696 1301.96 Q107.033 1299.86 107.033 1296.25 Q107.033 1292.63 104.696 1290.53 Q102.358 1288.42 98.353 1288.42 Q96.478 1288.42 94.603 1288.84 Q92.7512 1289.26 90.8067 1290.13 L90.8067 1272.77 Z" fill="#000000" fill-rule="evenodd" fill-opacity="1" /><path clip-path="url(#clip190)" d="M99.765 1050.25 Q96.1539 1050.25 94.3252 1053.82 Q92.5197 1057.36 92.5197 1064.49 Q92.5197 1071.59 94.3252 1075.16 Q96.1539 1078.7 99.765 1078.7 Q103.399 1078.7 105.205 1075.16 Q107.033 1071.59 107.033 1064.49 Q107.033 1057.36 105.205 1053.82 Q103.399 1050.25 99.765 1050.25 M99.765 1046.55 Q105.575 1046.55 108.631 1051.15 Q111.709 1055.74 111.709 1064.49 Q111.709 1073.21 108.631 1077.82 Q105.575 1082.4 99.765 1082.4 Q93.9549 1082.4 90.8762 1077.82 Q87.8206 1073.21 87.8206 1064.49 Q87.8206 1055.74 90.8762 1051.15 Q93.9549 1046.55 99.765 1046.55 Z" fill="#000000" fill-rule="evenodd" fill-opacity="1" /><path clip-path="url(#clip190)" d="M90.8067 821.571 L109.163 821.571 L109.163 825.506 L95.0891 825.506 L95.0891 833.978 Q96.1076 833.631 97.1261 833.469 Q98.1447 833.284 99.1632 833.284 Q104.95 833.284 108.33 836.455 Q111.709 839.627 111.709 845.043 Q111.709 850.622 108.237 853.724 Q104.765 856.802 98.4456 856.802 Q96.2697 856.802 94.0012 856.432 Q91.7558 856.062 89.3484 855.321 L89.3484 850.622 Q91.4317 851.756 93.6539 852.312 Q95.8761 852.867 98.353 852.867 Q102.358 852.867 104.696 850.761 Q107.033 848.654 107.033 845.043 Q107.033 841.432 104.696 839.326 Q102.358 837.219 98.353 837.219 Q96.478 837.219 94.603 837.636 Q92.7512 838.052 90.8067 838.932 L90.8067 821.571 Z" fill="#000000" fill-rule="evenodd" fill-opacity="1" /><path clip-path="url(#clip190)" d="M60.4134 626.595 L68.0522 626.595 L68.0522 600.229 L59.7421 601.896 L59.7421 597.636 L68.0059 595.97 L72.6818 595.97 L72.6818 626.595 L80.3207 626.595 L80.3207 630.53 L60.4134 630.53 L60.4134 626.595 Z" fill="#000000" fill-rule="evenodd" fill-opacity="1" /><path clip-path="url(#clip190)" d="M99.765 599.048 Q96.1539 599.048 94.3252 602.613 Q92.5197 606.155 92.5197 613.284 Q92.5197 620.391 94.3252 623.956 Q96.1539 627.497 99.765 627.497 Q103.399 627.497 105.205 623.956 Q107.033 620.391 107.033 613.284 Q107.033 606.155 105.205 602.613 Q103.399 599.048 99.765 599.048 M99.765 595.345 Q105.575 595.345 108.631 599.951 Q111.709 604.534 111.709 613.284 Q111.709 622.011 108.631 626.618 Q105.575 631.201 99.765 631.201 Q93.9549 631.201 90.8762 626.618 Q87.8206 622.011 87.8206 613.284 Q87.8206 604.534 90.8762 599.951 Q93.9549 595.345 99.765 595.345 Z" fill="#000000" fill-rule="evenodd" fill-opacity="1" /><path clip-path="url(#clip190)" d="M61.4087 400.993 L69.0476 400.993 L69.0476 374.628 L60.7374 376.294 L60.7374 372.035 L69.0013 370.368 L73.6772 370.368 L73.6772 400.993 L81.316 400.993 L81.316 404.928 L61.4087 404.928 L61.4087 400.993 Z" fill="#000000" fill-rule="evenodd" fill-opacity="1" /><path clip-path="url(#clip190)" d="M90.8067 370.368 L109.163 370.368 L109.163 374.303 L95.0891 374.303 L95.0891 382.776 Q96.1076 382.428 97.1261 382.266 Q98.1447 382.081 99.1632 382.081 Q104.95 382.081 108.33 385.252 Q111.709 388.424 111.709 393.84 Q111.709 399.419 108.237 402.521 Q104.765 405.6 98.4456 405.6 Q96.2697 405.6 94.0012 405.229 Q91.7558 404.859 89.3484 404.118 L89.3484 399.419 Q91.4317 400.553 93.6539 401.109 Q95.8761 401.664 98.353 401.664 Q102.358 401.664 104.696 399.558 Q107.033 397.451 107.033 393.84 Q107.033 390.229 104.696 388.123 Q102.358 386.016 98.353 386.016 Q96.478 386.016 94.603 386.433 Q92.7512 386.85 90.8067 387.729 L90.8067 370.368 Z" fill="#000000" fill-rule="evenodd" fill-opacity="1" /><path clip-path="url(#clip190)" d="M63.6309 175.392 L79.9503 175.392 L79.9503 179.327 L58.006 179.327 L58.006 175.392 Q60.668 172.637 65.2513 168.008 Q69.8578 163.355 71.0383 162.012 Q73.2837 159.489 74.1633 157.753 Q75.0661 155.994 75.0661 154.304 Q75.0661 151.549 73.1216 149.813 Q71.2004 148.077 68.0985 148.077 Q65.8995 148.077 63.4458 148.841 Q61.0152 149.605 58.2375 151.156 L58.2375 146.434 Q61.0615 145.299 63.5152 144.721 Q65.9689 144.142 68.0059 144.142 Q73.3763 144.142 76.5707 146.827 Q79.7651 149.512 79.7651 154.003 Q79.7651 156.133 78.9549 158.054 Q78.1679 159.952 76.0614 162.545 Q75.4827 163.216 72.3809 166.433 Q69.2791 169.628 63.6309 175.392 Z" fill="#000000" fill-rule="evenodd" fill-opacity="1" /><path clip-path="url(#clip190)" d="M99.765 147.846 Q96.1539 147.846 94.3252 151.41 Q92.5197 154.952 92.5197 162.082 Q92.5197 169.188 94.3252 172.753 Q96.1539 176.295 99.765 176.295 Q103.399 176.295 105.205 172.753 Q107.033 169.188 107.033 162.082 Q107.033 154.952 105.205 151.41 Q103.399 147.846 99.765 147.846 M99.765 144.142 Q105.575 144.142 108.631 148.748 Q111.709 153.332 111.709 162.082 Q111.709 170.808 108.631 175.415 Q105.575 179.998 99.765 179.998 Q93.9549 179.998 90.8762 175.415 Q87.8206 170.808 87.8206 162.082 Q87.8206 153.332 90.8762 148.748 Q93.9549 144.142 99.765 144.142 Z" fill="#000000" fill-rule="evenodd" fill-opacity="1" /><path clip-path="url(#clip190)" d="M334.303 12.096 L369.06 12.096 L369.06 18.9825 L342.486 18.9825 L342.486 36.8065 L366.467 36.8065 L366.467 43.6931 L342.486 43.6931 L342.486 72.576 L334.303 72.576 L334.303 12.096 Z" fill="#000000" fill-rule="evenodd" fill-opacity="1" /><path clip-path="url(#clip190)" d="M375.663 27.2059 L383.116 27.2059 L383.116 72.576 L375.663 72.576 L375.663 27.2059 M375.663 9.54393 L383.116 9.54393 L383.116 18.9825 L375.663 18.9825 L375.663 9.54393 Z" fill="#000000" fill-rule="evenodd" fill-opacity="1" /><path clip-path="url(#clip190)" d="M436.426 45.1919 L436.426 72.576 L428.973 72.576 L428.973 45.4349 Q428.973 38.994 426.461 35.7938 Q423.949 32.5936 418.926 32.5936 Q412.89 32.5936 409.407 36.4419 Q405.923 40.2903 405.923 46.9338 L405.923 72.576 L398.429 72.576 L398.429 27.2059 L405.923 27.2059 L405.923 34.2544 Q408.597 30.163 412.202 28.1376 Q415.848 26.1121 420.587 26.1121 Q428.405 26.1121 432.416 30.9732 Q436.426 35.7938 436.426 45.1919 Z" fill="#000000" fill-rule="evenodd" fill-opacity="1" /><path clip-path="url(#clip190)" d="M471.912 49.7694 Q462.879 49.7694 459.395 51.8354 Q455.911 53.9013 455.911 58.8839 Q455.911 62.8538 458.504 65.2034 Q461.137 67.5124 465.633 67.5124 Q471.831 67.5124 475.558 63.1374 Q479.325 58.7219 479.325 51.4303 L479.325 49.7694 L471.912 49.7694 M486.779 46.6907 L486.779 72.576 L479.325 72.576 L479.325 65.6895 Q476.773 69.8214 472.965 71.8063 Q469.158 73.7508 463.648 73.7508 Q456.681 73.7508 452.549 69.8619 Q448.457 65.9325 448.457 59.3701 Q448.457 51.7138 453.562 47.825 Q458.706 43.9361 468.874 43.9361 L479.325 43.9361 L479.325 43.2069 Q479.325 38.0623 475.923 35.2672 Q472.56 32.4315 466.443 32.4315 Q462.555 32.4315 458.868 33.3632 Q455.182 34.295 451.779 36.1584 L451.779 29.2718 Q455.871 27.692 459.719 26.9223 Q463.567 26.1121 467.213 26.1121 Q477.057 26.1121 481.918 31.2163 Q486.779 36.3204 486.779 46.6907 Z" fill="#000000" fill-rule="evenodd" fill-opacity="1" /><path clip-path="url(#clip190)" d="M502.132 9.54393 L509.586 9.54393 L509.586 72.576 L502.132 72.576 L502.132 9.54393 Z" fill="#000000" fill-rule="evenodd" fill-opacity="1" /><path clip-path="url(#clip190)" d="M580.557 44.2197 Q583.191 45.1109 585.662 48.0275 Q588.173 50.9442 590.685 56.0483 L598.989 72.576 L590.199 72.576 L582.461 57.061 Q579.464 50.9847 576.628 48.9997 Q573.833 47.0148 568.972 47.0148 L560.06 47.0148 L560.06 72.576 L551.877 72.576 L551.877 12.096 L570.349 12.096 Q580.719 12.096 585.824 16.4305 Q590.928 20.7649 590.928 29.5149 Q590.928 35.2267 588.254 38.994 Q585.621 42.7613 580.557 44.2197 M560.06 18.8205 L560.06 40.2903 L570.349 40.2903 Q576.263 40.2903 579.261 37.5762 Q582.299 34.8216 582.299 29.5149 Q582.299 24.2082 579.261 21.5346 Q576.263 18.8205 570.349 18.8205 L560.06 18.8205 Z" fill="#000000" fill-rule="evenodd" fill-opacity="1" /><path clip-path="url(#clip190)" d="M627.994 49.7694 Q618.96 49.7694 615.476 51.8354 Q611.992 53.9013 611.992 58.8839 Q611.992 62.8538 614.585 65.2034 Q617.218 67.5124 621.715 67.5124 Q627.912 67.5124 631.639 63.1374 Q635.407 58.7219 635.407 51.4303 L635.407 49.7694 L627.994 49.7694 M642.86 46.6907 L642.86 72.576 L635.407 72.576 L635.407 65.6895 Q632.855 69.8214 629.047 71.8063 Q625.239 73.7508 619.73 73.7508 Q612.762 73.7508 608.63 69.8619 Q604.539 65.9325 604.539 59.3701 Q604.539 51.7138 609.643 47.825 Q614.788 43.9361 624.955 43.9361 L635.407 43.9361 L635.407 43.2069 Q635.407 38.0623 632.004 35.2672 Q628.642 32.4315 622.525 32.4315 Q618.636 32.4315 614.95 33.3632 Q611.263 34.295 607.861 36.1584 L607.861 29.2718 Q611.952 27.692 615.8 26.9223 Q619.649 26.1121 623.294 26.1121 Q633.138 26.1121 637.999 31.2163 Q642.86 36.3204 642.86 46.6907 Z" fill="#000000" fill-rule="evenodd" fill-opacity="1" /><path clip-path="url(#clip190)" d="M695.927 45.1919 L695.927 72.576 L688.474 72.576 L688.474 45.4349 Q688.474 38.994 685.962 35.7938 Q683.45 32.5936 678.427 32.5936 Q672.391 32.5936 668.908 36.4419 Q665.424 40.2903 665.424 46.9338 L665.424 72.576 L657.93 72.576 L657.93 27.2059 L665.424 27.2059 L665.424 34.2544 Q668.097 30.163 671.703 28.1376 Q675.349 26.1121 680.088 26.1121 Q687.906 26.1121 691.917 30.9732 Q695.927 35.7938 695.927 45.1919 Z" fill="#000000" fill-rule="evenodd" fill-opacity="1" /><path clip-path="url(#clip190)" d="M710.51 9.54393 L718.005 9.54393 L718.005 46.7717 L740.244 27.2059 L749.764 27.2059 L725.701 48.4326 L750.776 72.576 L741.054 72.576 L718.005 50.4176 L718.005 72.576 L710.51 72.576 L710.51 9.54393 Z" fill="#000000" fill-rule="evenodd" fill-opacity="1" /><path clip-path="url(#clip190)" d="M758.838 27.2059 L766.291 27.2059 L766.291 72.576 L758.838 72.576 L758.838 27.2059 M758.838 9.54393 L766.291 9.54393 L766.291 18.9825 L758.838 18.9825 L758.838 9.54393 Z" fill="#000000" fill-rule="evenodd" fill-opacity="1" /><path clip-path="url(#clip190)" d="M819.601 45.1919 L819.601 72.576 L812.148 72.576 L812.148 45.4349 Q812.148 38.994 809.636 35.7938 Q807.124 32.5936 802.101 32.5936 Q796.066 32.5936 792.582 36.4419 Q789.098 40.2903 789.098 46.9338 L789.098 72.576 L781.604 72.576 L781.604 27.2059 L789.098 27.2059 L789.098 34.2544 Q791.772 30.163 795.377 28.1376 Q799.023 26.1121 803.762 26.1121 Q811.58 26.1121 815.591 30.9732 Q819.601 35.7938 819.601 45.1919 Z" fill="#000000" fill-rule="evenodd" fill-opacity="1" /><path clip-path="url(#clip190)" d="M864.323 49.3643 Q864.323 41.2625 860.961 36.8065 Q857.639 32.3505 851.603 32.3505 Q845.608 32.3505 842.246 36.8065 Q838.924 41.2625 838.924 49.3643 Q838.924 57.4256 842.246 61.8816 Q845.608 66.3376 851.603 66.3376 Q857.639 66.3376 860.961 61.8816 Q864.323 57.4256 864.323 49.3643 M871.777 66.9452 Q871.777 78.5308 866.632 84.1616 Q861.488 89.8329 850.874 89.8329 Q846.945 89.8329 843.461 89.2252 Q839.977 88.6581 836.696 87.4428 L836.696 80.1917 Q839.977 81.9741 843.178 82.8248 Q846.378 83.6755 849.699 83.6755 Q857.032 83.6755 860.677 79.8271 Q864.323 76.0193 864.323 68.282 L864.323 64.5957 Q862.014 68.6061 858.409 70.5911 Q854.804 72.576 849.781 72.576 Q841.436 72.576 836.332 66.2161 Q831.227 59.8562 831.227 49.3643 Q831.227 38.832 836.332 32.472 Q841.436 26.1121 849.781 26.1121 Q854.804 26.1121 858.409 28.0971 Q862.014 30.082 864.323 34.0924 L864.323 27.2059 L871.777 27.2059 L871.777 66.9452 Z" fill="#000000" fill-rule="evenodd" fill-opacity="1" /><path clip-path="url(#clip190)" d="M929.421 72.576 L906.331 12.096 L914.879 12.096 L934.039 63.0159 L953.241 12.096 L961.748 12.096 L938.698 72.576 L929.421 72.576 Z" fill="#000000" fill-rule="evenodd" fill-opacity="1" /><path clip-path="url(#clip190)" d="M1002.62 48.0275 L1002.62 51.6733 L968.35 51.6733 Q968.837 59.3701 972.969 63.421 Q977.141 67.4314 984.554 67.4314 Q988.848 67.4314 992.858 66.3781 Q996.909 65.3249 1000.88 63.2184 L1000.88 70.267 Q996.869 71.9684 992.656 72.8596 Q988.443 73.7508 984.108 73.7508 Q973.252 73.7508 966.892 67.4314 Q960.573 61.1119 960.573 50.3365 Q960.573 39.1965 966.568 32.6746 Q972.604 26.1121 982.812 26.1121 Q991.967 26.1121 997.274 32.0264 Q1002.62 37.9003 1002.62 48.0275 M995.167 45.84 Q995.086 39.7232 991.724 36.0774 Q988.402 32.4315 982.893 32.4315 Q976.655 32.4315 972.887 35.9558 Q969.161 39.4801 968.594 45.8805 L995.167 45.84 Z" fill="#000000" fill-rule="evenodd" fill-opacity="1" /><path clip-path="url(#clip190)" d="M1041.15 34.1734 Q1039.89 33.4443 1038.39 33.1202 Q1036.93 32.7556 1035.15 32.7556 Q1028.83 32.7556 1025.43 36.8875 Q1022.07 40.9789 1022.07 48.6757 L1022.07 72.576 L1014.57 72.576 L1014.57 27.2059 L1022.07 27.2059 L1022.07 34.2544 Q1024.41 30.1225 1028.18 28.1376 Q1031.95 26.1121 1037.34 26.1121 Q1038.11 26.1121 1039.04 26.2337 Q1039.97 26.3147 1041.1 26.5172 L1041.15 34.1734 Z" fill="#000000" fill-rule="evenodd" fill-opacity="1" /><path clip-path="url(#clip190)" d="M1077.89 28.5427 L1077.89 35.5912 Q1074.73 33.9709 1071.32 33.1607 Q1067.92 32.3505 1064.28 32.3505 Q1058.73 32.3505 1055.93 34.0519 Q1053.18 35.7533 1053.18 39.156 Q1053.18 41.7486 1055.16 43.2475 Q1057.15 44.7058 1063.14 46.0426 L1065.69 46.6097 Q1073.63 48.3111 1076.96 51.4303 Q1080.32 54.509 1080.32 60.0587 Q1080.32 66.3781 1075.29 70.0644 Q1070.31 73.7508 1061.56 73.7508 Q1057.92 73.7508 1053.95 73.0216 Q1050.02 72.3329 1045.64 70.9151 L1045.64 63.2184 Q1049.77 65.3654 1053.78 66.4591 Q1057.79 67.5124 1061.72 67.5124 Q1066.99 67.5124 1069.83 65.73 Q1072.66 63.9071 1072.66 60.6258 Q1072.66 57.5877 1070.6 55.9673 Q1068.57 54.3469 1061.64 52.8481 L1059.05 52.2405 Q1052.12 50.7821 1049.04 47.7845 Q1045.97 44.7463 1045.97 39.4801 Q1045.97 33.0797 1050.5 29.5959 Q1055.04 26.1121 1063.38 26.1121 Q1067.52 26.1121 1071.16 26.7198 Q1074.81 27.3274 1077.89 28.5427 Z" fill="#000000" fill-rule="evenodd" fill-opacity="1" /><path clip-path="url(#clip190)" d="M1091.42 54.671 L1091.42 27.2059 L1098.87 27.2059 L1098.87 54.3874 Q1098.87 60.8284 1101.38 64.0691 Q1103.89 67.2693 1108.92 67.2693 Q1114.95 67.2693 1118.44 63.421 Q1121.96 59.5726 1121.96 52.9291 L1121.96 27.2059 L1129.41 27.2059 L1129.41 72.576 L1121.96 72.576 L1121.96 65.6084 Q1119.25 69.7404 1115.64 71.7658 Q1112.08 73.7508 1107.34 73.7508 Q1099.52 73.7508 1095.47 68.8897 Q1091.42 64.0286 1091.42 54.671 M1110.17 26.1121 L1110.17 26.1121 Z" fill="#000000" fill-rule="evenodd" fill-opacity="1" /><path clip-path="url(#clip190)" d="M1173.69 28.5427 L1173.69 35.5912 Q1170.53 33.9709 1167.13 33.1607 Q1163.73 32.3505 1160.08 32.3505 Q1154.53 32.3505 1151.73 34.0519 Q1148.98 35.7533 1148.98 39.156 Q1148.98 41.7486 1150.97 43.2475 Q1152.95 44.7058 1158.95 46.0426 L1161.5 46.6097 Q1169.44 48.3111 1172.76 51.4303 Q1176.12 54.509 1176.12 60.0587 Q1176.12 66.3781 1171.1 70.0644 Q1166.12 73.7508 1157.37 73.7508 Q1153.72 73.7508 1149.75 73.0216 Q1145.82 72.3329 1141.45 70.9151 L1141.45 63.2184 Q1145.58 65.3654 1149.59 66.4591 Q1153.6 67.5124 1157.53 67.5124 Q1162.79 67.5124 1165.63 65.73 Q1168.47 63.9071 1168.47 60.6258 Q1168.47 57.5877 1166.4 55.9673 Q1164.37 54.3469 1157.45 52.8481 L1154.85 52.2405 Q1147.93 50.7821 1144.85 47.7845 Q1141.77 44.7463 1141.77 39.4801 Q1141.77 33.0797 1146.31 29.5959 Q1150.84 26.1121 1159.19 26.1121 Q1163.32 26.1121 1166.97 26.7198 Q1170.61 27.3274 1173.69 28.5427 Z" fill="#000000" fill-rule="evenodd" fill-opacity="1" /><path clip-path="url(#clip190)" d="M1237.9 19.2256 L1217.24 51.5113 L1237.9 51.5113 L1237.9 19.2256 M1235.75 12.096 L1246.04 12.096 L1246.04 51.5113 L1254.67 51.5113 L1254.67 58.3168 L1246.04 58.3168 L1246.04 72.576 L1237.9 72.576 L1237.9 58.3168 L1210.59 58.3168 L1210.59 50.4176 L1235.75 12.096 Z" fill="#000000" fill-rule="evenodd" fill-opacity="1" /><path clip-path="url(#clip190)" d="M1274.52 14.324 L1274.52 27.2059 L1289.87 27.2059 L1289.87 32.9987 L1274.52 32.9987 L1274.52 57.6282 Q1274.52 63.1779 1276.02 64.7578 Q1277.56 66.3376 1282.21 66.3376 L1289.87 66.3376 L1289.87 72.576 L1282.21 72.576 Q1273.59 72.576 1270.3 69.3758 Q1267.02 66.1351 1267.02 57.6282 L1267.02 32.9987 L1261.55 32.9987 L1261.55 27.2059 L1267.02 27.2059 L1267.02 14.324 L1274.52 14.324 Z" fill="#000000" fill-rule="evenodd" fill-opacity="1" /><path clip-path="url(#clip190)" d="M1337.39 45.1919 L1337.39 72.576 L1329.93 72.576 L1329.93 45.4349 Q1329.93 38.994 1327.42 35.7938 Q1324.91 32.5936 1319.89 32.5936 Q1313.85 32.5936 1310.37 36.4419 Q1306.88 40.2903 1306.88 46.9338 L1306.88 72.576 L1299.39 72.576 L1299.39 9.54393 L1306.88 9.54393 L1306.88 34.2544 Q1309.56 30.163 1313.16 28.1376 Q1316.81 26.1121 1321.55 26.1121 Q1329.37 26.1121 1333.38 30.9732 Q1337.39 35.7938 1337.39 45.1919 Z" fill="#000000" fill-rule="evenodd" fill-opacity="1" /><path clip-path="url(#clip190)" d="M1378.95 12.096 L1391.14 12.096 L1406.58 53.2532 L1422.09 12.096 L1434.29 12.096 L1434.29 72.576 L1426.31 72.576 L1426.31 19.4686 L1410.71 60.9499 L1402.49 60.9499 L1386.89 19.4686 L1386.89 72.576 L1378.95 72.576 L1378.95 12.096 Z" fill="#000000" fill-rule="evenodd" fill-opacity="1" /><path clip-path="url(#clip190)" d="M1467.79 32.4315 Q1461.79 32.4315 1458.31 37.1306 Q1454.82 41.7891 1454.82 49.9314 Q1454.82 58.0738 1458.27 62.7728 Q1461.75 67.4314 1467.79 67.4314 Q1473.74 67.4314 1477.23 62.7323 Q1480.71 58.0333 1480.71 49.9314 Q1480.71 41.8701 1477.23 37.1711 Q1473.74 32.4315 1467.79 32.4315 M1467.79 26.1121 Q1477.51 26.1121 1483.06 32.4315 Q1488.61 38.7509 1488.61 49.9314 Q1488.61 61.0714 1483.06 67.4314 Q1477.51 73.7508 1467.79 73.7508 Q1458.02 73.7508 1452.47 67.4314 Q1446.96 61.0714 1446.96 49.9314 Q1446.96 38.7509 1452.47 32.4315 Q1458.02 26.1121 1467.79 26.1121 Z" fill="#000000" fill-rule="evenodd" fill-opacity="1" /><path clip-path="url(#clip190)" d="M1495.62 27.2059 L1503.52 27.2059 L1517.69 65.2844 L1531.87 27.2059 L1539.77 27.2059 L1522.76 72.576 L1512.63 72.576 L1495.62 27.2059 Z" fill="#000000" fill-rule="evenodd" fill-opacity="1" /><path clip-path="url(#clip190)" d="M1588.87 48.0275 L1588.87 51.6733 L1554.6 51.6733 Q1555.08 59.3701 1559.22 63.421 Q1563.39 67.4314 1570.8 67.4314 Q1575.09 67.4314 1579.11 66.3781 Q1583.16 65.3249 1587.13 63.2184 L1587.13 70.267 Q1583.12 71.9684 1578.9 72.8596 Q1574.69 73.7508 1570.36 73.7508 Q1559.5 73.7508 1553.14 67.4314 Q1546.82 61.1119 1546.82 50.3365 Q1546.82 39.1965 1552.81 32.6746 Q1558.85 26.1121 1569.06 26.1121 Q1578.21 26.1121 1583.52 32.0264 Q1588.87 37.9003 1588.87 48.0275 M1581.41 45.84 Q1581.33 39.7232 1577.97 36.0774 Q1574.65 32.4315 1569.14 32.4315 Q1562.9 32.4315 1559.13 35.9558 Q1555.41 39.4801 1554.84 45.8805 L1581.41 45.84 Z" fill="#000000" fill-rule="evenodd" fill-opacity="1" /><path clip-path="url(#clip190)" d="M1636.43 35.9153 Q1639.22 30.8922 1643.11 28.5022 Q1647 26.1121 1652.26 26.1121 Q1659.35 26.1121 1663.2 31.0947 Q1667.05 36.0368 1667.05 45.1919 L1667.05 72.576 L1659.56 72.576 L1659.56 45.4349 Q1659.56 38.913 1657.25 35.7533 Q1654.94 32.5936 1650.2 32.5936 Q1644.41 32.5936 1641.04 36.4419 Q1637.68 40.2903 1637.68 46.9338 L1637.68 72.576 L1630.19 72.576 L1630.19 45.4349 Q1630.19 38.8725 1627.88 35.7533 Q1625.57 32.5936 1620.75 32.5936 Q1615.04 32.5936 1611.67 36.4824 Q1608.31 40.3308 1608.31 46.9338 L1608.31 72.576 L1600.82 72.576 L1600.82 27.2059 L1608.31 27.2059 L1608.31 34.2544 Q1610.86 30.082 1614.43 28.0971 Q1617.99 26.1121 1622.9 26.1121 Q1627.84 26.1121 1631.28 28.6237 Q1634.76 31.1352 1636.43 35.9153 Z" fill="#000000" fill-rule="evenodd" fill-opacity="1" /><path clip-path="url(#clip190)" d="M1720.72 48.0275 L1720.72 51.6733 L1686.45 51.6733 Q1686.94 59.3701 1691.07 63.421 Q1695.24 67.4314 1702.66 67.4314 Q1706.95 67.4314 1710.96 66.3781 Q1715.01 65.3249 1718.98 63.2184 L1718.98 70.267 Q1714.97 71.9684 1710.76 72.8596 Q1706.55 73.7508 1702.21 73.7508 Q1691.36 73.7508 1685 67.4314 Q1678.68 61.1119 1678.68 50.3365 Q1678.68 39.1965 1684.67 32.6746 Q1690.71 26.1121 1700.92 26.1121 Q1710.07 26.1121 1715.38 32.0264 Q1720.72 37.9003 1720.72 48.0275 M1713.27 45.84 Q1713.19 39.7232 1709.83 36.0774 Q1706.51 32.4315 1701 32.4315 Q1694.76 32.4315 1690.99 35.9558 Q1687.26 39.4801 1686.7 45.8805 L1713.27 45.84 Z" fill="#000000" fill-rule="evenodd" fill-opacity="1" /><path clip-path="url(#clip190)" d="M1770.67 45.1919 L1770.67 72.576 L1763.22 72.576 L1763.22 45.4349 Q1763.22 38.994 1760.71 35.7938 Q1758.2 32.5936 1753.17 32.5936 Q1747.14 32.5936 1743.65 36.4419 Q1740.17 40.2903 1740.17 46.9338 L1740.17 72.576 L1732.68 72.576 L1732.68 27.2059 L1740.17 27.2059 L1740.17 34.2544 Q1742.84 30.163 1746.45 28.1376 Q1750.09 26.1121 1754.83 26.1121 Q1762.65 26.1121 1766.66 30.9732 Q1770.67 35.7938 1770.67 45.1919 Z" fill="#000000" fill-rule="evenodd" fill-opacity="1" /><path clip-path="url(#clip190)" d="M1792.91 14.324 L1792.91 27.2059 L1808.26 27.2059 L1808.26 32.9987 L1792.91 32.9987 L1792.91 57.6282 Q1792.91 63.1779 1794.41 64.7578 Q1795.95 66.3376 1800.61 66.3376 L1808.26 66.3376 L1808.26 72.576 L1800.61 72.576 Q1791.98 72.576 1788.7 69.3758 Q1785.42 66.1351 1785.42 57.6282 L1785.42 32.9987 L1779.95 32.9987 L1779.95 27.2059 L1785.42 27.2059 L1785.42 14.324 L1792.91 14.324 Z" fill="#000000" fill-rule="evenodd" fill-opacity="1" /><path clip-path="url(#clip190)" d="M1862.34 9.62495 Q1856.92 18.942 1854.28 28.0566 Q1851.65 37.1711 1851.65 46.5287 Q1851.65 55.8863 1854.28 65.0818 Q1856.96 74.2369 1862.34 83.5134 L1855.86 83.5134 Q1849.79 73.9938 1846.75 64.7983 Q1843.75 55.6027 1843.75 46.5287 Q1843.75 37.4952 1846.75 28.3401 Q1849.75 19.1851 1855.86 9.62495 L1862.34 9.62495 Z" fill="#000000" fill-rule="evenodd" fill-opacity="1" /><path clip-path="url(#clip190)" d="M1868.74 12.096 L1919.91 12.096 L1919.91 18.9825 L1898.44 18.9825 L1898.44 72.576 L1890.21 72.576 L1890.21 18.9825 L1868.74 18.9825 L1868.74 12.096 Z" fill="#000000" fill-rule="evenodd" fill-opacity="1" /><path clip-path="url(#clip190)" d="M1930.97 32.4315 Q1924.97 32.4315 1921.49 37.1306 Q1918 41.7891 1918 49.9314 Q1918 58.0738 1921.45 62.7728 Q1924.93 67.4314 1930.97 67.4314 Q1936.92 67.4314 1940.41 62.7323 Q1943.89 58.0333 1943.89 49.9314 Q1943.89 41.8701 1940.41 37.1711 Q1936.92 32.4315 1930.97 32.4315 M1930.97 26.1121 Q1940.69 26.1121 1946.24 32.4315 Q1951.79 38.7509 1951.79 49.9314 Q1951.79 61.0714 1946.24 67.4314 Q1940.69 73.7508 1930.97 73.7508 Q1921.2 73.7508 1915.65 67.4314 Q1910.15 61.0714 1910.15 49.9314 Q1910.15 38.7509 1915.65 32.4315 Q1921.2 26.1121 1930.97 26.1121 Z" fill="#000000" fill-rule="evenodd" fill-opacity="1" /><path clip-path="url(#clip190)" d="M1971.35 65.7705 L1971.35 89.8329 L1963.86 89.8329 L1963.86 27.2059 L1971.35 27.2059 L1971.35 34.0924 Q1973.7 30.0415 1977.27 28.0971 Q1980.87 26.1121 1985.86 26.1121 Q1994.12 26.1121 1999.27 32.6746 Q2004.45 39.2371 2004.45 49.9314 Q2004.45 60.6258 1999.27 67.1883 Q1994.12 73.7508 1985.86 73.7508 Q1980.87 73.7508 1977.27 71.8063 Q1973.7 69.8214 1971.35 65.7705 M1996.71 49.9314 Q1996.71 41.7081 1993.31 37.0496 Q1989.95 32.3505 1984.03 32.3505 Q1978.12 32.3505 1974.72 37.0496 Q1971.35 41.7081 1971.35 49.9314 Q1971.35 58.1548 1974.72 62.8538 Q1978.12 67.5124 1984.03 67.5124 Q1989.95 67.5124 1993.31 62.8538 Q1996.71 58.1548 1996.71 49.9314 Z" fill="#000000" fill-rule="evenodd" fill-opacity="1" /><path clip-path="url(#clip190)" d="M2051.28 65.6895 L2079.84 65.6895 L2079.84 72.576 L2041.44 72.576 L2041.44 65.6895 Q2046.09 60.8689 2054.11 52.7671 Q2062.18 44.6248 2064.24 42.2752 Q2068.17 37.8598 2069.71 34.8216 Q2071.29 31.7429 2071.29 28.7857 Q2071.29 23.9651 2067.89 20.927 Q2064.53 17.8888 2059.1 17.8888 Q2055.25 17.8888 2050.95 19.2256 Q2046.7 20.5624 2041.84 23.2765 L2041.84 15.0127 Q2046.78 13.0277 2051.08 12.015 Q2055.37 11.0023 2058.93 11.0023 Q2068.33 11.0023 2073.92 15.7013 Q2079.51 20.4004 2079.51 28.2591 Q2079.51 31.9859 2078.1 35.3482 Q2076.72 38.6699 2073.03 43.2069 Q2072.02 44.3817 2066.59 50.0125 Q2061.16 55.6027 2051.28 65.6895 Z" fill="#000000" fill-rule="evenodd" fill-opacity="1" /><path clip-path="url(#clip190)" d="M2114.51 17.4837 Q2108.19 17.4837 2104.99 23.7221 Q2101.83 29.92 2101.83 42.3968 Q2101.83 54.833 2104.99 61.0714 Q2108.19 67.2693 2114.51 67.2693 Q2120.87 67.2693 2124.03 61.0714 Q2127.23 54.833 2127.23 42.3968 Q2127.23 29.92 2124.03 23.7221 Q2120.87 17.4837 2114.51 17.4837 M2114.51 11.0023 Q2124.68 11.0023 2130.03 19.0636 Q2135.42 27.0843 2135.42 42.3968 Q2135.42 57.6687 2130.03 65.73 Q2124.68 73.7508 2114.51 73.7508 Q2104.35 73.7508 2098.96 65.73 Q2093.61 57.6687 2093.61 42.3968 Q2093.61 27.0843 2098.96 19.0636 Q2104.35 11.0023 2114.51 11.0023 Z" fill="#000000" fill-rule="evenodd" fill-opacity="1" /><path clip-path="url(#clip190)" d="M2147.57 9.62495 L2154.05 9.62495 Q2160.13 19.1851 2163.12 28.3401 Q2166.16 37.4952 2166.16 46.5287 Q2166.16 55.6027 2163.12 64.7983 Q2160.13 73.9938 2154.05 83.5134 L2147.57 83.5134 Q2152.96 74.2369 2155.59 65.0818 Q2158.26 55.8863 2158.26 46.5287 Q2158.26 37.1711 2155.59 28.0566 Q2152.96 18.942 2147.57 9.62495 Z" fill="#000000" fill-rule="evenodd" fill-opacity="1" /><circle clip-path="url(#clip192)" cx="210.116" cy="999.02" r="14.4" fill="#ff7e0d" fill-rule="evenodd" fill-opacity="1" stroke="#000000" stroke-opacity="1" stroke-width="3.2"/>
<circle clip-path="url(#clip192)" cx="319.602" cy="1065.19" r="14.4" fill="#ff7e0d" fill-rule="evenodd" fill-opacity="1" stroke="#000000" stroke-opacity="1" stroke-width="3.2"/>
<circle clip-path="url(#clip192)" cx="429.088" cy="952.938" r="14.4" fill="#ff7e0d" fill-rule="evenodd" fill-opacity="1" stroke="#000000" stroke-opacity="1" stroke-width="3.2"/>
<circle clip-path="url(#clip192)" cx="429.088" cy="944.548" r="14.4" fill="#ff7e0d" fill-rule="evenodd" fill-opacity="1" stroke="#000000" stroke-opacity="1" stroke-width="3.2"/>
<circle clip-path="url(#clip192)" cx="429.088" cy="1026.03" r="14.4" fill="#ff7e0d" fill-rule="evenodd" fill-opacity="1" stroke="#000000" stroke-opacity="1" stroke-width="3.2"/>
<circle clip-path="url(#clip192)" cx="757.546" cy="1191.35" r="14.4" fill="#ff7e0d" fill-rule="evenodd" fill-opacity="1" stroke="#000000" stroke-opacity="1" stroke-width="3.2"/>
<circle clip-path="url(#clip192)" cx="867.032" cy="797.084" r="14.4" fill="#ff7e0d" fill-rule="evenodd" fill-opacity="1" stroke="#000000" stroke-opacity="1" stroke-width="3.2"/>
<circle clip-path="url(#clip192)" cx="867.032" cy="1057.77" r="14.4" fill="#ff7e0d" fill-rule="evenodd" fill-opacity="1" stroke="#000000" stroke-opacity="1" stroke-width="3.2"/>
<circle clip-path="url(#clip192)" cx="1086" cy="1009.9" r="14.4" fill="#ff7e0d" fill-rule="evenodd" fill-opacity="1" stroke="#000000" stroke-opacity="1" stroke-width="3.2"/>
<circle clip-path="url(#clip192)" cx="1086" cy="1021.19" r="14.4" fill="#ff7e0d" fill-rule="evenodd" fill-opacity="1" stroke="#000000" stroke-opacity="1" stroke-width="3.2"/>
<circle clip-path="url(#clip192)" cx="1304.98" cy="1171.98" r="14.4" fill="#ff7e0d" fill-rule="evenodd" fill-opacity="1" stroke="#000000" stroke-opacity="1" stroke-width="3.2"/>
<circle clip-path="url(#clip192)" cx="1414.46" cy="670.204" r="14.4" fill="#ff7e0d" fill-rule="evenodd" fill-opacity="1" stroke="#000000" stroke-opacity="1" stroke-width="3.2"/>
<circle clip-path="url(#clip192)" cx="1414.46" cy="1022.7" r="14.4" fill="#ff7e0d" fill-rule="evenodd" fill-opacity="1" stroke="#000000" stroke-opacity="1" stroke-width="3.2"/>
<circle clip-path="url(#clip192)" cx="1633.43" cy="211.052" r="14.4" fill="#ff7e0d" fill-rule="evenodd" fill-opacity="1" stroke="#000000" stroke-opacity="1" stroke-width="3.2"/>
<circle clip-path="url(#clip192)" cx="1633.43" cy="675.654" r="14.4" fill="#ff7e0d" fill-rule="evenodd" fill-opacity="1" stroke="#000000" stroke-opacity="1" stroke-width="3.2"/>
<circle clip-path="url(#clip192)" cx="1633.43" cy="679.038" r="14.4" fill="#ff7e0d" fill-rule="evenodd" fill-opacity="1" stroke="#000000" stroke-opacity="1" stroke-width="3.2"/>
<circle clip-path="url(#clip192)" cx="1633.43" cy="753.171" r="14.4" fill="#ff7e0d" fill-rule="evenodd" fill-opacity="1" stroke="#000000" stroke-opacity="1" stroke-width="3.2"/>
<circle clip-path="url(#clip192)" cx="1633.43" cy="882.642" r="14.4" fill="#ff7e0d" fill-rule="evenodd" fill-opacity="1" stroke="#000000" stroke-opacity="1" stroke-width="3.2"/>
<circle clip-path="url(#clip192)" cx="1633.43" cy="1226" r="14.4" fill="#ff7e0d" fill-rule="evenodd" fill-opacity="1" stroke="#000000" stroke-opacity="1" stroke-width="3.2"/>
<circle clip-path="url(#clip192)" cx="2290.35" cy="959.065" r="14.4" fill="#ff7e0d" fill-rule="evenodd" fill-opacity="1" stroke="#000000" stroke-opacity="1" stroke-width="3.2"/>
<circle clip-path="url(#clip192)" cx="2290.35" cy="1235.11" r="14.4" fill="#ff7e0d" fill-rule="evenodd" fill-opacity="1" stroke="#000000" stroke-opacity="1" stroke-width="3.2"/>
<circle clip-path="url(#clip192)" cx="210.116" cy="999.878" r="14.4" fill="#1f77b4" fill-rule="evenodd" fill-opacity="1" stroke="#000000" stroke-opacity="1" stroke-width="3.2"/>
<circle clip-path="url(#clip192)" cx="319.602" cy="1084.42" r="14.4" fill="#1f77b4" fill-rule="evenodd" fill-opacity="1" stroke="#000000" stroke-opacity="1" stroke-width="3.2"/>
<circle clip-path="url(#clip192)" cx="429.088" cy="948.945" r="14.4" fill="#1f77b4" fill-rule="evenodd" fill-opacity="1" stroke="#000000" stroke-opacity="1" stroke-width="3.2"/>
<circle clip-path="url(#clip192)" cx="538.574" cy="938.509" r="14.4" fill="#1f77b4" fill-rule="evenodd" fill-opacity="1" stroke="#000000" stroke-opacity="1" stroke-width="3.2"/>
<circle clip-path="url(#clip192)" cx="538.574" cy="1119.58" r="14.4" fill="#1f77b4" fill-rule="evenodd" fill-opacity="1" stroke="#000000" stroke-opacity="1" stroke-width="3.2"/>
<circle clip-path="url(#clip192)" cx="757.546" cy="903.626" r="14.4" fill="#1f77b4" fill-rule="evenodd" fill-opacity="1" stroke="#000000" stroke-opacity="1" stroke-width="3.2"/>
<circle clip-path="url(#clip192)" cx="867.032" cy="1048.27" r="14.4" fill="#1f77b4" fill-rule="evenodd" fill-opacity="1" stroke="#000000" stroke-opacity="1" stroke-width="3.2"/>
<circle clip-path="url(#clip192)" cx="976.518" cy="776.652" r="14.4" fill="#1f77b4" fill-rule="evenodd" fill-opacity="1" stroke="#000000" stroke-opacity="1" stroke-width="3.2"/>
<circle clip-path="url(#clip192)" cx="976.518" cy="873.237" r="14.4" fill="#1f77b4" fill-rule="evenodd" fill-opacity="1" stroke="#000000" stroke-opacity="1" stroke-width="3.2"/>
<circle clip-path="url(#clip192)" cx="976.518" cy="978.983" r="14.4" fill="#1f77b4" fill-rule="evenodd" fill-opacity="1" stroke="#000000" stroke-opacity="1" stroke-width="3.2"/>
<circle clip-path="url(#clip192)" cx="1304.98" cy="1200.37" r="14.4" fill="#1f77b4" fill-rule="evenodd" fill-opacity="1" stroke="#000000" stroke-opacity="1" stroke-width="3.2"/>
<circle clip-path="url(#clip192)" cx="1304.98" cy="1447.87" r="14.4" fill="#1f77b4" fill-rule="evenodd" fill-opacity="1" stroke="#000000" stroke-opacity="1" stroke-width="3.2"/>
<circle clip-path="url(#clip192)" cx="1523.95" cy="973.042" r="14.4" fill="#1f77b4" fill-rule="evenodd" fill-opacity="1" stroke="#000000" stroke-opacity="1" stroke-width="3.2"/>
<circle clip-path="url(#clip192)" cx="1633.43" cy="1123.37" r="14.4" fill="#1f77b4" fill-rule="evenodd" fill-opacity="1" stroke="#000000" stroke-opacity="1" stroke-width="3.2"/>
<circle clip-path="url(#clip192)" cx="1742.92" cy="742.28" r="14.4" fill="#1f77b4" fill-rule="evenodd" fill-opacity="1" stroke="#000000" stroke-opacity="1" stroke-width="3.2"/>
<circle clip-path="url(#clip192)" cx="1742.92" cy="1227.34" r="14.4" fill="#1f77b4" fill-rule="evenodd" fill-opacity="1" stroke="#000000" stroke-opacity="1" stroke-width="3.2"/>
<circle clip-path="url(#clip192)" cx="1961.89" cy="556.888" r="14.4" fill="#1f77b4" fill-rule="evenodd" fill-opacity="1" stroke="#000000" stroke-opacity="1" stroke-width="3.2"/>
<circle clip-path="url(#clip192)" cx="1961.89" cy="929.12" r="14.4" fill="#1f77b4" fill-rule="evenodd" fill-opacity="1" stroke="#000000" stroke-opacity="1" stroke-width="3.2"/>
<circle clip-path="url(#clip192)" cx="1961.89" cy="940.148" r="14.4" fill="#1f77b4" fill-rule="evenodd" fill-opacity="1" stroke="#000000" stroke-opacity="1" stroke-width="3.2"/>
<circle clip-path="url(#clip192)" cx="1961.89" cy="1125.35" r="14.4" fill="#1f77b4" fill-rule="evenodd" fill-opacity="1" stroke="#000000" stroke-opacity="1" stroke-width="3.2"/>
<circle clip-path="url(#clip192)" cx="210.116" cy="1028.57" r="14.4" fill="#bcbd21" fill-rule="evenodd" fill-opacity="1" stroke="#000000" stroke-opacity="1" stroke-width="3.2"/>
<circle clip-path="url(#clip192)" cx="319.602" cy="1003.84" r="14.4" fill="#bcbd21" fill-rule="evenodd" fill-opacity="1" stroke="#000000" stroke-opacity="1" stroke-width="3.2"/>
<circle clip-path="url(#clip192)" cx="429.088" cy="993.515" r="14.4" fill="#bcbd21" fill-rule="evenodd" fill-opacity="1" stroke="#000000" stroke-opacity="1" stroke-width="3.2"/>
<circle clip-path="url(#clip192)" cx="429.088" cy="1075.29" r="14.4" fill="#bcbd21" fill-rule="evenodd" fill-opacity="1" stroke="#000000" stroke-opacity="1" stroke-width="3.2"/>
<circle clip-path="url(#clip192)" cx="648.06" cy="1057.78" r="14.4" fill="#bcbd21" fill-rule="evenodd" fill-opacity="1" stroke="#000000" stroke-opacity="1" stroke-width="3.2"/>
<circle clip-path="url(#clip192)" cx="757.546" cy="884.638" r="14.4" fill="#bcbd21" fill-rule="evenodd" fill-opacity="1" stroke="#000000" stroke-opacity="1" stroke-width="3.2"/>
<circle clip-path="url(#clip192)" cx="867.032" cy="1082.36" r="14.4" fill="#bcbd21" fill-rule="evenodd" fill-opacity="1" stroke="#000000" stroke-opacity="1" stroke-width="3.2"/>
<circle clip-path="url(#clip192)" cx="976.518" cy="920.667" r="14.4" fill="#bcbd21" fill-rule="evenodd" fill-opacity="1" stroke="#000000" stroke-opacity="1" stroke-width="3.2"/>
<circle clip-path="url(#clip192)" cx="976.518" cy="1078.16" r="14.4" fill="#bcbd21" fill-rule="evenodd" fill-opacity="1" stroke="#000000" stroke-opacity="1" stroke-width="3.2"/>
<circle clip-path="url(#clip192)" cx="1195.49" cy="776.612" r="14.4" fill="#bcbd21" fill-rule="evenodd" fill-opacity="1" stroke="#000000" stroke-opacity="1" stroke-width="3.2"/>
<circle clip-path="url(#clip192)" cx="1195.49" cy="1115.07" r="14.4" fill="#bcbd21" fill-rule="evenodd" fill-opacity="1" stroke="#000000" stroke-opacity="1" stroke-width="3.2"/>
<circle clip-path="url(#clip192)" cx="1414.46" cy="1104.54" r="14.4" fill="#bcbd21" fill-rule="evenodd" fill-opacity="1" stroke="#000000" stroke-opacity="1" stroke-width="3.2"/>
<circle clip-path="url(#clip192)" cx="1414.46" cy="1178.77" r="14.4" fill="#bcbd21" fill-rule="evenodd" fill-opacity="1" stroke="#000000" stroke-opacity="1" stroke-width="3.2"/>
<circle clip-path="url(#clip192)" cx="1633.43" cy="1000.27" r="14.4" fill="#bcbd21" fill-rule="evenodd" fill-opacity="1" stroke="#000000" stroke-opacity="1" stroke-width="3.2"/>
<circle clip-path="url(#clip192)" cx="1742.92" cy="842.427" r="14.4" fill="#bcbd21" fill-rule="evenodd" fill-opacity="1" stroke="#000000" stroke-opacity="1" stroke-width="3.2"/>
<circle clip-path="url(#clip192)" cx="1742.92" cy="852.637" r="14.4" fill="#bcbd21" fill-rule="evenodd" fill-opacity="1" stroke="#000000" stroke-opacity="1" stroke-width="3.2"/>
<circle clip-path="url(#clip192)" cx="1961.89" cy="1309.95" r="14.4" fill="#bcbd21" fill-rule="evenodd" fill-opacity="1" stroke="#000000" stroke-opacity="1" stroke-width="3.2"/>
<circle clip-path="url(#clip192)" cx="2071.38" cy="639.484" r="14.4" fill="#bcbd21" fill-rule="evenodd" fill-opacity="1" stroke="#000000" stroke-opacity="1" stroke-width="3.2"/>
<circle clip-path="url(#clip192)" cx="2071.38" cy="817.258" r="14.4" fill="#bcbd21" fill-rule="evenodd" fill-opacity="1" stroke="#000000" stroke-opacity="1" stroke-width="3.2"/>
<circle clip-path="url(#clip192)" cx="2290.35" cy="891.115" r="14.4" fill="#bcbd21" fill-rule="evenodd" fill-opacity="1" stroke="#000000" stroke-opacity="1" stroke-width="3.2"/>
<circle clip-path="url(#clip192)" cx="2290.35" cy="1103.66" r="14.4" fill="#bcbd21" fill-rule="evenodd" fill-opacity="1" stroke="#000000" stroke-opacity="1" stroke-width="3.2"/>
<circle clip-path="url(#clip192)" cx="2290.35" cy="1105.15" r="14.4" fill="#bcbd21" fill-rule="evenodd" fill-opacity="1" stroke="#000000" stroke-opacity="1" stroke-width="3.2"/>
<circle clip-path="url(#clip192)" cx="2290.35" cy="1216.51" r="14.4" fill="#bcbd21" fill-rule="evenodd" fill-opacity="1" stroke="#000000" stroke-opacity="1" stroke-width="3.2"/>
<circle clip-path="url(#clip192)" cx="2290.35" cy="1441.58" r="14.4" fill="#bcbd21" fill-rule="evenodd" fill-opacity="1" stroke="#000000" stroke-opacity="1" stroke-width="3.2"/>
<circle clip-path="url(#clip192)" cx="210.116" cy="1039.25" r="14.4" fill="#7e7e7e" fill-rule="evenodd" fill-opacity="1" stroke="#000000" stroke-opacity="1" stroke-width="3.2"/>
<circle clip-path="url(#clip192)" cx="319.602" cy="842.264" r="14.4" fill="#7e7e7e" fill-rule="evenodd" fill-opacity="1" stroke="#000000" stroke-opacity="1" stroke-width="3.2"/>
<circle clip-path="url(#clip192)" cx="319.602" cy="1027.19" r="14.4" fill="#7e7e7e" fill-rule="evenodd" fill-opacity="1" stroke="#000000" stroke-opacity="1" stroke-width="3.2"/>
<circle clip-path="url(#clip192)" cx="538.574" cy="1139.07" r="14.4" fill="#7e7e7e" fill-rule="evenodd" fill-opacity="1" stroke="#000000" stroke-opacity="1" stroke-width="3.2"/>
<circle clip-path="url(#clip192)" cx="648.06" cy="1030.93" r="14.4" fill="#7e7e7e" fill-rule="evenodd" fill-opacity="1" stroke="#000000" stroke-opacity="1" stroke-width="3.2"/>
<circle clip-path="url(#clip192)" cx="757.546" cy="1006.73" r="14.4" fill="#7e7e7e" fill-rule="evenodd" fill-opacity="1" stroke="#000000" stroke-opacity="1" stroke-width="3.2"/>
<circle clip-path="url(#clip192)" cx="757.546" cy="1218.89" r="14.4" fill="#7e7e7e" fill-rule="evenodd" fill-opacity="1" stroke="#000000" stroke-opacity="1" stroke-width="3.2"/>
<circle clip-path="url(#clip192)" cx="976.518" cy="945.826" r="14.4" fill="#7e7e7e" fill-rule="evenodd" fill-opacity="1" stroke="#000000" stroke-opacity="1" stroke-width="3.2"/>
<circle clip-path="url(#clip192)" cx="1086" cy="505.638" r="14.4" fill="#7e7e7e" fill-rule="evenodd" fill-opacity="1" stroke="#000000" stroke-opacity="1" stroke-width="3.2"/>
<circle clip-path="url(#clip192)" cx="1086" cy="480.534" r="14.4" fill="#7e7e7e" fill-rule="evenodd" fill-opacity="1" stroke="#000000" stroke-opacity="1" stroke-width="3.2"/>
<circle clip-path="url(#clip192)" cx="1086" cy="922.041" r="14.4" fill="#7e7e7e" fill-rule="evenodd" fill-opacity="1" stroke="#000000" stroke-opacity="1" stroke-width="3.2"/>
<circle clip-path="url(#clip192)" cx="1414.46" cy="996.915" r="14.4" fill="#7e7e7e" fill-rule="evenodd" fill-opacity="1" stroke="#000000" stroke-opacity="1" stroke-width="3.2"/>
<circle clip-path="url(#clip192)" cx="1414.46" cy="1183.11" r="14.4" fill="#7e7e7e" fill-rule="evenodd" fill-opacity="1" stroke="#000000" stroke-opacity="1" stroke-width="3.2"/>
<circle clip-path="url(#clip192)" cx="1633.43" cy="1223.29" r="14.4" fill="#7e7e7e" fill-rule="evenodd" fill-opacity="1" stroke="#000000" stroke-opacity="1" stroke-width="3.2"/>
<circle clip-path="url(#clip192)" cx="1633.43" cy="1354.61" r="14.4" fill="#7e7e7e" fill-rule="evenodd" fill-opacity="1" stroke="#000000" stroke-opacity="1" stroke-width="3.2"/>
<circle clip-path="url(#clip192)" cx="1852.41" cy="710.207" r="14.4" fill="#7e7e7e" fill-rule="evenodd" fill-opacity="1" stroke="#000000" stroke-opacity="1" stroke-width="3.2"/>
<circle clip-path="url(#clip192)" cx="1852.41" cy="968.959" r="14.4" fill="#7e7e7e" fill-rule="evenodd" fill-opacity="1" stroke="#000000" stroke-opacity="1" stroke-width="3.2"/>
<circle clip-path="url(#clip192)" cx="1852.41" cy="960.978" r="14.4" fill="#7e7e7e" fill-rule="evenodd" fill-opacity="1" stroke="#000000" stroke-opacity="1" stroke-width="3.2"/>
<circle clip-path="url(#clip192)" cx="1852.41" cy="1166.97" r="14.4" fill="#7e7e7e" fill-rule="evenodd" fill-opacity="1" stroke="#000000" stroke-opacity="1" stroke-width="3.2"/>
<circle clip-path="url(#clip192)" cx="2290.35" cy="580.619" r="14.4" fill="#7e7e7e" fill-rule="evenodd" fill-opacity="1" stroke="#000000" stroke-opacity="1" stroke-width="3.2"/>
<polyline clip-path="url(#clip192)" style="stroke:#000000; stroke-linecap:round; stroke-linejoin:round; stroke-width:4; stroke-opacity:1; fill:none" points="
  210.116,162.047 223.66,167.628 348.889,219.236 424.146,250.251 487.775,276.473 556.894,304.957 620.615,331.218 688.932,359.372 768.083,391.991 838.423,420.979 
  900.105,446.398 967.355,474.113 1035,501.992 1109.8,532.816 1180.97,562.144 1254.96,592.638 1317.25,618.308 1393.3,649.648 1462.96,678.358 1527.3,704.873 
  1592.48,731.732 1665.52,761.834 1731.71,789.111 1807.49,820.341 1877.66,849.258 1946.83,877.766 2014,905.445 2082.85,933.82 2158.29,964.907 2267.87,1010.07 
  2290.35,1019.33 
  "/>
<path clip-path="url(#clip190)" d="
M1829.58 324.425 L2279.25 324.425 L2279.25 168.905 L1829.58 168.905  Z
  " fill="#ffffff" fill-rule="evenodd" fill-opacity="1"/>
<polyline clip-path="url(#clip190)" style="stroke:#000000; stroke-linecap:round; stroke-linejoin:round; stroke-width:4; stroke-opacity:1; fill:none" points="
  1829.58,324.425 2279.25,324.425 2279.25,168.905 1829.58,168.905 1829.58,324.425 
  "/>
<circle clip-path="url(#clip190)" cx="1927.59" cy="220.745" r="23.04" fill="#ff7e0d" fill-rule="evenodd" fill-opacity="1" stroke="#000000" stroke-opacity="1" stroke-width="5.12"/>
<path clip-path="url(#clip190)" d="M2025.59 203.465 L2030.26 203.465 L2030.26 238.025 L2025.59 238.025 L2025.59 203.465 Z" fill="#000000" fill-rule="evenodd" fill-opacity="1" /><path clip-path="url(#clip190)" d="M2060.94 222.377 L2060.94 238.025 L2056.68 238.025 L2056.68 222.515 Q2056.68 218.835 2055.24 217.006 Q2053.81 215.178 2050.94 215.178 Q2047.49 215.178 2045.5 217.377 Q2043.5 219.576 2043.5 223.372 L2043.5 238.025 L2039.22 238.025 L2039.22 212.099 L2043.5 212.099 L2043.5 216.127 Q2045.03 213.789 2047.09 212.631 Q2049.18 211.474 2051.88 211.474 Q2056.35 211.474 2058.64 214.252 Q2060.94 217.006 2060.94 222.377 Z" fill="#000000" fill-rule="evenodd" fill-opacity="1" /><path clip-path="url(#clip190)" d="M2086.49 216.034 L2086.49 202.006 L2090.75 202.006 L2090.75 238.025 L2086.49 238.025 L2086.49 234.136 Q2085.15 236.451 2083.09 237.585 Q2081.05 238.696 2078.18 238.696 Q2073.48 238.696 2070.52 234.946 Q2067.58 231.196 2067.58 225.085 Q2067.58 218.974 2070.52 215.224 Q2073.48 211.474 2078.18 211.474 Q2081.05 211.474 2083.09 212.608 Q2085.15 213.719 2086.49 216.034 M2071.98 225.085 Q2071.98 229.784 2073.9 232.469 Q2075.84 235.131 2079.22 235.131 Q2082.6 235.131 2084.55 232.469 Q2086.49 229.784 2086.49 225.085 Q2086.49 220.386 2084.55 217.724 Q2082.6 215.039 2079.22 215.039 Q2075.84 215.039 2073.9 217.724 Q2071.98 220.386 2071.98 225.085 Z" fill="#000000" fill-rule="evenodd" fill-opacity="1" /><path clip-path="url(#clip190)" d="M2099.52 212.099 L2103.78 212.099 L2103.78 238.025 L2099.52 238.025 L2099.52 212.099 M2099.52 202.006 L2103.78 202.006 L2103.78 207.4 L2099.52 207.4 L2099.52 202.006 Z" fill="#000000" fill-rule="evenodd" fill-opacity="1" /><path clip-path="url(#clip190)" d="M2109.64 212.099 L2114.15 212.099 L2122.25 233.858 L2130.36 212.099 L2134.87 212.099 L2125.15 238.025 L2119.36 238.025 L2109.64 212.099 Z" fill="#000000" fill-rule="evenodd" fill-opacity="1" /><path clip-path="url(#clip190)" d="M2140.75 212.099 L2145.01 212.099 L2145.01 238.025 L2140.75 238.025 L2140.75 212.099 M2140.75 202.006 L2145.01 202.006 L2145.01 207.4 L2140.75 207.4 L2140.75 202.006 Z" fill="#000000" fill-rule="evenodd" fill-opacity="1" /><path clip-path="url(#clip190)" d="M2170.98 216.034 L2170.98 202.006 L2175.24 202.006 L2175.24 238.025 L2170.98 238.025 L2170.98 234.136 Q2169.64 236.451 2167.58 237.585 Q2165.54 238.696 2162.67 238.696 Q2157.97 238.696 2155.01 234.946 Q2152.07 231.196 2152.07 225.085 Q2152.07 218.974 2155.01 215.224 Q2157.97 211.474 2162.67 211.474 Q2165.54 211.474 2167.58 212.608 Q2169.64 213.719 2170.98 216.034 M2156.47 225.085 Q2156.47 229.784 2158.39 232.469 Q2160.33 235.131 2163.71 235.131 Q2167.09 235.131 2169.04 232.469 Q2170.98 229.784 2170.98 225.085 Q2170.98 220.386 2169.04 217.724 Q2167.09 215.039 2163.71 215.039 Q2160.33 215.039 2158.39 217.724 Q2156.47 220.386 2156.47 225.085 Z" fill="#000000" fill-rule="evenodd" fill-opacity="1" /><path clip-path="url(#clip190)" d="M2183.57 227.793 L2183.57 212.099 L2187.83 212.099 L2187.83 227.631 Q2187.83 231.312 2189.27 233.164 Q2190.7 234.992 2193.57 234.992 Q2197.02 234.992 2199.01 232.793 Q2201.03 230.594 2201.03 226.798 L2201.03 212.099 L2205.29 212.099 L2205.29 238.025 L2201.03 238.025 L2201.03 234.043 Q2199.48 236.404 2197.42 237.562 Q2195.38 238.696 2192.67 238.696 Q2188.2 238.696 2185.89 235.918 Q2183.57 233.14 2183.57 227.793 M2194.29 211.474 L2194.29 211.474 Z" fill="#000000" fill-rule="evenodd" fill-opacity="1" /><path clip-path="url(#clip190)" d="M2225.84 224.992 Q2220.68 224.992 2218.69 226.173 Q2216.7 227.353 2216.7 230.201 Q2216.7 232.469 2218.18 233.812 Q2219.68 235.131 2222.25 235.131 Q2225.8 235.131 2227.93 232.631 Q2230.08 230.108 2230.08 225.941 L2230.08 224.992 L2225.84 224.992 M2234.34 223.233 L2234.34 238.025 L2230.08 238.025 L2230.08 234.089 Q2228.62 236.451 2226.44 237.585 Q2224.27 238.696 2221.12 238.696 Q2217.14 238.696 2214.78 236.474 Q2212.44 234.228 2212.44 230.478 Q2212.44 226.103 2215.36 223.881 Q2218.3 221.659 2224.11 221.659 L2230.08 221.659 L2230.08 221.242 Q2230.08 218.303 2228.13 216.705 Q2226.21 215.085 2222.72 215.085 Q2220.49 215.085 2218.39 215.617 Q2216.28 216.15 2214.34 217.215 L2214.34 213.279 Q2216.68 212.377 2218.87 211.937 Q2221.07 211.474 2223.16 211.474 Q2228.78 211.474 2231.56 214.391 Q2234.34 217.307 2234.34 223.233 Z" fill="#000000" fill-rule="evenodd" fill-opacity="1" /><path clip-path="url(#clip190)" d="M2243.11 202.006 L2247.37 202.006 L2247.37 238.025 L2243.11 238.025 L2243.11 202.006 Z" fill="#000000" fill-rule="evenodd" fill-opacity="1" /><polyline clip-path="url(#clip190)" style="stroke:#000000; stroke-linecap:round; stroke-linejoin:round; stroke-width:4; stroke-opacity:1; fill:none" points="
  1854.08,272.585 2001.09,272.585 
  "/>
<path clip-path="url(#clip190)" d="M2025.59 255.305 L2031.88 255.305 L2047.21 284.217 L2047.21 255.305 L2051.75 255.305 L2051.75 289.865 L2045.45 289.865 L2030.13 260.953 L2030.13 289.865 L2025.59 289.865 L2025.59 255.305 Z" fill="#000000" fill-rule="evenodd" fill-opacity="1" /><path clip-path="url(#clip190)" d="M2070.91 266.925 Q2067.49 266.925 2065.5 269.61 Q2063.5 272.272 2063.5 276.925 Q2063.5 281.578 2065.47 284.263 Q2067.46 286.925 2070.91 286.925 Q2074.31 286.925 2076.31 284.24 Q2078.3 281.555 2078.3 276.925 Q2078.3 272.318 2076.31 269.633 Q2074.31 266.925 2070.91 266.925 M2070.91 263.314 Q2076.47 263.314 2079.64 266.925 Q2082.81 270.536 2082.81 276.925 Q2082.81 283.291 2079.64 286.925 Q2076.47 290.536 2070.91 290.536 Q2065.33 290.536 2062.16 286.925 Q2059.01 283.291 2059.01 276.925 Q2059.01 270.536 2062.16 266.925 Q2065.33 263.314 2070.91 263.314 Z" fill="#000000" fill-rule="evenodd" fill-opacity="1" /><path clip-path="url(#clip190)" d="M2094.08 256.578 L2094.08 263.939 L2102.86 263.939 L2102.86 267.249 L2094.08 267.249 L2094.08 281.323 Q2094.08 284.494 2094.94 285.397 Q2095.82 286.3 2098.48 286.3 L2102.86 286.3 L2102.86 289.865 L2098.48 289.865 Q2093.55 289.865 2091.68 288.036 Q2089.8 286.184 2089.8 281.323 L2089.8 267.249 L2086.68 267.249 L2086.68 263.939 L2089.8 263.939 L2089.8 256.578 L2094.08 256.578 Z" fill="#000000" fill-rule="evenodd" fill-opacity="1" /><path clip-path="url(#clip190)" d="M2123.53 263.939 L2127.79 263.939 L2127.79 289.865 L2123.53 289.865 L2123.53 263.939 M2123.53 253.846 L2127.79 253.846 L2127.79 259.24 L2123.53 259.24 L2123.53 253.846 Z" fill="#000000" fill-rule="evenodd" fill-opacity="1" /><path clip-path="url(#clip190)" d="M2158.25 274.217 L2158.25 289.865 L2153.99 289.865 L2153.99 274.355 Q2153.99 270.675 2152.56 268.846 Q2151.12 267.018 2148.25 267.018 Q2144.8 267.018 2142.81 269.217 Q2140.82 271.416 2140.82 275.212 L2140.82 289.865 L2136.54 289.865 L2136.54 263.939 L2140.82 263.939 L2140.82 267.967 Q2142.35 265.629 2144.41 264.471 Q2146.49 263.314 2149.2 263.314 Q2153.67 263.314 2155.96 266.092 Q2158.25 268.846 2158.25 274.217 Z" fill="#000000" fill-rule="evenodd" fill-opacity="1" /><path clip-path="url(#clip190)" d="M2177.21 255.305 L2206.44 255.305 L2206.44 259.24 L2194.18 259.24 L2194.18 289.865 L2189.48 289.865 L2189.48 259.24 L2177.21 259.24 L2177.21 255.305 Z" fill="#000000" fill-rule="evenodd" fill-opacity="1" /><path clip-path="url(#clip190)" d="M2212.76 266.925 Q2209.34 266.925 2207.35 269.61 Q2205.36 272.272 2205.36 276.925 Q2205.36 281.578 2207.32 284.263 Q2209.31 286.925 2212.76 286.925 Q2216.17 286.925 2218.16 284.24 Q2220.15 281.555 2220.15 276.925 Q2220.15 272.318 2218.16 269.633 Q2216.17 266.925 2212.76 266.925 M2212.76 263.314 Q2218.32 263.314 2221.49 266.925 Q2224.66 270.536 2224.66 276.925 Q2224.66 283.291 2221.49 286.925 Q2218.32 290.536 2212.76 290.536 Q2207.18 290.536 2204.01 286.925 Q2200.87 283.291 2200.87 276.925 Q2200.87 270.536 2204.01 266.925 Q2207.18 263.314 2212.76 263.314 Z" fill="#000000" fill-rule="evenodd" fill-opacity="1" /><path clip-path="url(#clip190)" d="M2235.84 285.976 L2235.84 299.726 L2231.56 299.726 L2231.56 263.939 L2235.84 263.939 L2235.84 267.874 Q2237.18 265.559 2239.22 264.448 Q2241.28 263.314 2244.13 263.314 Q2248.85 263.314 2251.79 267.064 Q2254.75 270.814 2254.75 276.925 Q2254.75 283.036 2251.79 286.786 Q2248.85 290.536 2244.13 290.536 Q2241.28 290.536 2239.22 289.425 Q2237.18 288.291 2235.84 285.976 M2250.33 276.925 Q2250.33 272.226 2248.39 269.564 Q2246.47 266.879 2243.09 266.879 Q2239.71 266.879 2237.76 269.564 Q2235.84 272.226 2235.84 276.925 Q2235.84 281.624 2237.76 284.309 Q2239.71 286.971 2243.09 286.971 Q2246.47 286.971 2248.39 284.309 Q2250.33 281.624 2250.33 276.925 Z" fill="#000000" fill-rule="evenodd" fill-opacity="1" /></svg>
